<svg width="64" height="65" viewBox="0 0 64 65" fill="none" xmlns="http://www.w3.org/2000/svg">
<circle cx="33.5" cy="34.5" r="30.5" fill="#DCAC2E"/>
<circle cx="30" cy="30" r="30" fill="#F7D45A"/>
<circle cx="30" cy="30" r="23" fill="#DCAC2E"/>
<rect x="22" y="20" width="5" height="19" rx="2.5" fill="#F7D45A"/>
<rect x="39" y="20" width="10" height="17" rx="3.5" transform="rotate(90 39 20)" fill="#F7D45A"/>
<rect x="39" y="30" width="9" height="17" rx="3.5" transform="rotate(90 39 30)" fill="#F7D45A"/>
<path d="M33 23C34.1046 23 35 23.8954 35 25V25C35 26.1046 34.1046 27 33 27L27 27L27 23L33 23Z" fill="#DCAC2E"/>
<path d="M33 32C34.1046 32 35 32.8954 35 34V34C35 35.1046 34.1046 36 33 36L27 36L27 32L33 32Z" fill="#DCAC2E"/>
<path d="M25 17.0946C25 15.9378 25.9378 15 27.0946 15V15C28.2514 15 29.1892 15.9378 29.1892 17.0946L29.1892 20.8649L25 20.8649L25 17.0946Z" fill="#F7D45A"/>
<path d="M30.027 17.0946C30.027 15.9378 30.9648 15 32.1216 15V15C33.2784 15 34.2162 15.9378 34.2162 17.0946L34.2162 20.8649L30.027 20.8649L30.027 17.0946Z" fill="#F7D45A"/>
<path d="M25 42.7703C25 43.9271 25.9378 44.8649 27.0946 44.8649V44.8649C28.2514 44.8649 29.1892 43.9271 29.1892 42.7703L29.1892 39L25 39L25 42.7703Z" fill="#F7D45A"/>
<path d="M30.027 42.7703C30.027 43.9271 30.9648 44.8649 32.1216 44.8649V44.8649C33.2784 44.8649 34.2162 43.9271 34.2162 42.7703L34.2162 39L30.027 39L30.027 42.7703Z" fill="#F7D45A"/>
</svg>
