<svg width="1440" height="694" viewBox="0 0 1440 694" fill="none" xmlns="http://www.w3.org/2000/svg">
<circle cx="114.88" cy="366.238" r="36.5" transform="rotate(3.95584 114.88 366.238)" fill="#3F8E5B"/>
<circle cx="121.017" cy="386.209" r="38" transform="rotate(3.95584 121.017 386.209)" fill="#275C40"/>
<circle cx="79.4431" cy="385.84" r="36.5" transform="rotate(3.95584 79.4431 385.84)" fill="#3F8E5B"/>
<circle cx="37.4184" cy="406.49" r="26" transform="rotate(3.95584 37.4184 406.49)" fill="#3F8E5B"/>
<circle cx="86.1823" cy="404.349" r="34.5" transform="rotate(3.95584 86.1823 404.349)" fill="#275C40"/>
<circle cx="66.1742" cy="425.52" r="26" transform="rotate(3.95584 66.1742 425.52)" fill="#3F8E5B"/>
<circle cx="165.909" cy="389.314" r="34" transform="rotate(3.95584 165.909 389.314)" fill="#3F8E5B"/>
<circle cx="175.591" cy="401.511" r="33.5" transform="rotate(3.95584 175.591 401.511)" fill="#275C40"/>
<rect x="54" y="614" width="596" height="80" fill="#10324B"/>
<rect x="54" y="563" width="596" height="51" fill="#377B56"/>
<path d="M54 537H632C641.941 537 650 545.059 650 555V555H54V537Z" fill="#56BC7A"/>
<path d="M18 416H491C499.837 416 507 423.163 507 432V432H18V416Z" fill="#D3FC82"/>
<path d="M18 472H507V537H18V472Z" fill="#56BC7A"/>
<rect x="54" y="555" width="596" height="8" fill="#265F3C"/>
<rect y="555" width="54" height="8" fill="#1F402D"/>
<rect y="537" width="54" height="18" fill="#3F8458"/>
<rect y="537" width="65" height="18" transform="rotate(-90 0 537)" fill="#3F8458"/>
<rect y="472" width="32" height="18" transform="rotate(-90 0 472)" fill="#77A542"/>
<rect y="440" width="8" height="18" transform="rotate(-90 0 440)" fill="#5B7B30"/>
<rect y="432" width="16" height="18" transform="rotate(-90 0 432)" fill="#94B55E"/>
<rect x="18" y="440" width="7.99998" height="489" transform="rotate(-90 18 440)" fill="#77A542"/>
<rect x="18" y="472" width="32" height="489" transform="rotate(-90 18 472)" fill="#A9E760"/>
<rect y="614" width="54" height="80" fill="#0C2132"/>
<rect y="563" width="54" height="51" fill="#27563A"/>
<path d="M436 432H446V458C446 460.761 443.761 463 441 463V463C438.239 463 436 460.761 436 458V432Z" fill="#D3FC82"/>
<path d="M600 555H610V593C610 595.761 607.761 598 605 598V598C602.239 598 600 595.761 600 593V555Z" fill="#265F3C"/>
<path d="M590 555H600V578C600 580.761 597.761 583 595 583V583C592.239 583 590 580.761 590 578V555Z" fill="#265F3C"/>
<path d="M426 432H436V463C436 465.761 433.761 468 431 468V468C428.239 468 426 465.761 426 463V432Z" fill="#77A542"/>
<path d="M600 555H610V574C610 576.761 607.761 579 605 579V579C602.239 579 600 576.761 600 574V555Z" fill="#56BC7A"/>
<path d="M610 555H620V589C620 591.761 617.761 594 615 594V594C612.239 594 610 591.761 610 589V555Z" fill="#56BC7A"/>
<path d="M446 432H456V448C456 450.761 453.761 453 451 453V453C448.239 453 446 450.761 446 448V432Z" fill="#D3FC82"/>
<rect x="558" y="621" width="10" height="12" fill="#133B58"/>
<rect x="615" y="662" width="10" height="12" fill="#133B58"/>
<rect x="576" y="577" width="10" height="12" fill="#3C865E"/>
<rect x="472" y="633" width="10" height="12" fill="#133B58"/>
<rect x="485" y="656" width="10" height="12" fill="#133B58"/>
<rect x="558" y="639" width="10" height="12" fill="#133B58"/>
<rect x="142" y="668" width="10" height="12" fill="#133B58"/>
<rect x="80" y="485" width="10" height="12" fill="#61D38D"/>
<rect x="475" y="505" width="10" height="12" fill="#61D38D"/>
<rect x="413" y="444" width="10" height="12" fill="#B3F564"/>
<rect x="397" y="453" width="10" height="12" fill="#B3F564"/>
<rect x="276" y="447" width="10" height="12" fill="#B3F564"/>
<rect x="30" y="453" width="10" height="12" fill="#B3F564"/>
<rect x="59" y="444" width="10" height="12" fill="#B3F564"/>
<rect x="290" y="485" width="10" height="12" fill="#61D38D"/>
<rect x="254" y="509" width="10" height="12" fill="#61D38D"/>
<rect x="319" y="592" width="10" height="12" fill="#3C865E"/>
<rect x="30" y="485" width="10" height="12" fill="#61D38D"/>
<rect x="80" y="622" width="10" height="12" fill="#133B58"/>
<rect x="175" y="571" width="10" height="12" fill="#3C865E"/>
<rect x="65" y="592" width="10" height="12" fill="#3C865E"/>
<rect x="10" y="575" width="10" height="12" fill="#2D6142"/>
<rect x="27" y="586" width="10" height="12" fill="#2D6142"/>
<rect x="502" y="571" width="10" height="12" fill="#3C865E"/>
<rect x="480" y="575" width="10" height="23" fill="#3C865E"/>
<rect x="582" y="633" width="10" height="23" fill="#133B58"/>
<rect x="8" y="628" width="10" height="12" fill="#0F293E"/>
<rect x="27" y="671" width="10" height="12" fill="#0F293E"/>
<rect x="8" y="646" width="10" height="12" fill="#0F293E"/>
<rect x="27" y="634" width="10" height="23" fill="#0F293E"/>
<rect x="522" y="662" width="10" height="23" fill="#133B58"/>
<rect x="426" y="488" width="10" height="23" fill="#61D38D"/>
<rect x="257" y="571" width="10" height="23" fill="#3C865E"/>
<rect x="182" y="662" width="10" height="23" fill="#133B58"/>
<rect x="319" y="650" width="10" height="23" fill="#133B58"/>
<rect x="201" y="477" width="10" height="23" fill="#61D38D"/>
<rect x="170" y="500" width="10" height="12" fill="#61D38D"/>
<rect x="81" y="571" width="10" height="23" fill="#3C865E"/>
<rect x="54" y="498" width="10" height="23" fill="#61D38D"/>
<rect x="160" y="639" width="10" height="23" fill="#133B58"/>
<path d="M1276.24 49.9444C1238.12 54.9963 1226.29 90.7037 1225.14 107.926C1222.85 136.056 1248.68 164.759 1273.36 161.889C1293.11 159.593 1300.35 166.29 1301.49 169.926C1307.01 185.541 1325.99 191.358 1334.79 192.315H1391.05H1419.18C1434.79 192.315 1440.23 186.957 1440.99 184.278V10.3333C1438.7 2.98519 1429.7 0.382716 1425.49 0H1324.46C1311.83 1.72222 1292.5 10.3333 1288.29 25.8333C1283.94 41.8441 1280.83 48.7963 1276.24 49.9444Z" fill="#275C40"/>
<mask id="mask0_24_225" style="mask-type:alpha" maskUnits="userSpaceOnUse" x="1225" y="0" width="216" height="193">
<path d="M1276.24 49.9444C1238.12 54.9963 1226.29 90.7037 1225.14 107.926C1222.85 136.056 1248.68 164.759 1273.36 161.889C1293.11 159.593 1300.35 166.29 1301.49 169.926C1307.01 185.541 1325.99 191.358 1334.79 192.315H1391.05H1419.18C1434.79 192.315 1440.23 186.957 1440.99 184.278V10.3333C1438.7 2.98519 1429.7 0.382716 1425.49 0H1324.46C1311.83 1.72222 1293 9.5 1288 26.5C1283.32 42.4165 1280.83 48.7963 1276.24 49.9444Z" fill="#275C40"/>
</mask>
<g mask="url(#mask0_24_225)">
<path d="M1279.24 39.9444C1241.12 44.9963 1229.29 80.7037 1228.14 97.9259C1225.85 126.056 1251.68 154.759 1276.36 151.889C1296.11 149.593 1303.35 156.29 1304.49 159.926C1310.01 175.541 1328.99 181.358 1337.79 182.315H1394.05H1422.18C1437.79 182.315 1443.23 176.957 1443.99 174.278V0.333334C1441.7 -7.01481 1432.7 -9.61728 1428.49 -10H1327.46C1314.83 -8.27778 1295.5 0.333334 1291.29 15.8333C1286.94 31.8441 1283.83 38.7963 1279.24 39.9444Z" fill="#3F8E5B"/>
</g>
<rect x="1372.11" y="63.7222" width="18.3704" height="261.778" rx="8" fill="#10324B"/>
<rect x="1322.74" y="116.436" width="18.3704" height="90.7332" rx="8" transform="rotate(-38.2811 1322.74 116.436)" fill="#10324B"/>
<rect x="1415.6" y="125.722" width="18.3704" height="66.3749" rx="8" transform="rotate(45 1415.6 125.722)" fill="#10324B"/>
<path d="M1305.09 120.364C1297.7 124.112 1288.67 121.161 1284.92 113.773L1281.44 106.896L1288.31 103.408C1295.7 99.6601 1304.73 102.611 1308.48 109.999L1311.96 116.875L1305.09 120.364Z" fill="#55BD7B"/>
<path d="M1337.3 83.7863C1329.18 82.1462 1323.92 74.2338 1325.56 66.1135L1327.09 58.5555L1334.65 60.0821C1342.77 61.7222 1348.02 69.6346 1346.38 77.7548L1344.85 85.3128L1337.3 83.7863Z" fill="#55BD7B"/>
<path d="M1353.66 45.581C1346.65 41.167 1344.54 31.9057 1348.96 24.8953L1353.06 18.3704L1359.59 22.4787C1366.6 26.8927 1368.7 36.154 1364.29 43.1644L1360.18 49.6893L1353.66 45.581Z" fill="#55BD7B"/>
<path d="M1407.82 100.631C1407.36 92.3594 1413.7 85.2823 1421.97 84.8238L1429.67 84.3971L1430.09 92.0959C1430.55 100.367 1424.22 107.445 1415.95 107.903L1408.25 108.33L1407.82 100.631Z" fill="#55BD7B"/>
<circle cx="1360.17" cy="274.561" r="36.5" transform="rotate(1.48906 1360.17 274.561)" fill="#3F8E5B"/>
<circle cx="1367.17" cy="294.249" r="38" transform="rotate(1.48906 1367.17 294.249)" fill="#275C40"/>
<circle cx="1325.61" cy="295.67" r="36.5" transform="rotate(1.48906 1325.61 295.67)" fill="#3F8E5B"/>
<circle cx="1284.52" cy="318.109" r="26" transform="rotate(1.48906 1284.52 318.109)" fill="#3F8E5B"/>
<circle cx="1333.14" cy="313.872" r="34.5" transform="rotate(1.48906 1333.14 313.872)" fill="#275C40"/>
<circle cx="1314.07" cy="335.883" r="26" transform="rotate(1.48906 1314.07 335.883)" fill="#3F8E5B"/>
<circle cx="1412.15" cy="295.418" r="34" transform="rotate(1.48906 1412.15 295.418)" fill="#3F8E5B"/>
<circle cx="1422.35" cy="307.187" r="33.5" transform="rotate(1.48906 1422.35 307.187)" fill="#275C40"/>
<rect width="555" height="80" transform="matrix(-1 0 0 1 1386 614)" fill="#10324B"/>
<rect width="555" height="51" transform="matrix(-1 0 0 1 1386 563)" fill="#377B56"/>
<path d="M1386 537H849C839.059 537 831 545.059 831 555H1386V537Z" fill="#56BC7A"/>
<rect width="555" height="8" transform="matrix(-1 0 0 1 1386 555)" fill="#265F3C"/>
<rect width="85" height="8" transform="matrix(-1 0 0 1 1440 555)" fill="#1F402D"/>
<rect width="85" height="18" transform="matrix(-1 0 0 1 1440 537)" fill="#3F8458"/>
<rect width="85" height="80" transform="matrix(-1 0 0 1 1440 614)" fill="#0C2132"/>
<rect width="85" height="51" transform="matrix(-1 0 0 1 1440 563)" fill="#27563A"/>
<mask id="mask1_24_225" style="mask-type:alpha" maskUnits="userSpaceOnUse" x="971" y="320" width="469" height="217">
<path d="M1440 320V537H971V424.567C971 420.729 972.104 416.973 974.181 413.745L1031.55 324.589C1033.39 321.729 1036.56 320 1039.96 320H1440Z" fill="#D9D9D9"/>
</mask>
<g mask="url(#mask1_24_225)">
<path d="M1440 377.713H1396V474.67H1440V377.713Z" fill="#377B56"/>
<path d="M1396 473.516H971V537H1396V473.516Z" fill="#377B56"/>
<path d="M1396 377.713H971V474.67H1396V377.713Z" fill="#55BD7B"/>
<path d="M1396 353.473H971V377.713H1396V353.473Z" fill="#A8E762"/>
<path d="M1396 344.239H971V353.473H1396V344.239Z" fill="#7FAD4A"/>
<path d="M1396 320H971V344.239H1396V320Z" fill="#D4FC81"/>
<path d="M1440 474.67H1396V537H1440V474.67Z" fill="#28563C"/>
<path d="M1440 353.473H1396V377.713H1440V353.473Z" fill="#7AA343"/>
<path d="M1440 344.239H1396V353.473H1440V344.239Z" fill="#5A7B34"/>
<path d="M1440 320H1396V344.239H1440V320Z" fill="#96B362"/>
<path d="M1099 344.239H1089V379.638C1089 382.4 1091.24 384.638 1094 384.638C1096.76 384.638 1099 382.4 1099 379.638V344.239Z" fill="#D3FC82"/>
<path d="M1109 344.239H1099V386.564C1099 389.325 1101.24 391.564 1104 391.564C1106.76 391.564 1109 389.325 1109 386.564V344.239Z" fill="#7FAD4A"/>
<path d="M1089 344.239H1079V366.941C1079 369.703 1081.24 371.941 1084 371.941C1086.76 371.941 1089 369.703 1089 366.941V344.239Z" fill="#D3FC82"/>
<path d="M1151 344.239H1141V406.186C1141 408.948 1143.24 411.186 1146 411.186C1148.76 411.186 1151 408.948 1151 406.186V344.239Z" fill="#D3FC82"/>
<path d="M1171 344.239H1161V390.027C1161 392.788 1163.24 395.027 1166 395.027C1168.76 395.027 1171 392.788 1171 390.027V344.239Z" fill="#7FAD4A"/>
<path d="M1161 344.239H1151V415.42C1151 418.182 1153.24 420.42 1156 420.42C1158.76 420.42 1161 418.182 1161 415.42V344.239Z" fill="#7FAD4A"/>
<path d="M1161 376.559H1151V415.42C1151 418.182 1153.24 420.42 1156 420.42C1158.76 420.42 1161 418.182 1161 415.42V376.559Z" fill="#377B56"/>
<path d="M1171 377.713H1161V390.027C1161 392.788 1163.24 395.027 1166 395.027C1168.76 395.027 1171 392.788 1171 390.027V377.713Z" fill="#377B56"/>
<path d="M1109 377.713H1099V386.564C1099 389.325 1101.24 391.564 1104 391.564C1106.76 391.564 1109 389.325 1109 386.564V377.713Z" fill="#377B56"/>
<path d="M1161 344.239H1151V385.41C1151 388.171 1153.24 390.41 1156 390.41C1158.76 390.41 1161 388.171 1161 385.41V344.239Z" fill="#D3FC82"/>
</g>
<rect width="10" height="12" transform="matrix(-1 0 0 1 882 625)" fill="#133B58"/>
<rect width="10" height="12" transform="matrix(-1 0 0 1 864 581)" fill="#3C865E"/>
<rect width="10" height="12" transform="matrix(-1 0 0 1 968 637)" fill="#133B58"/>
<rect width="10" height="12" transform="matrix(-1 0 0 1 955 660)" fill="#133B58"/>
<rect width="10" height="12" transform="matrix(-1 0 0 1 882 643)" fill="#133B58"/>
<rect width="10" height="12" transform="matrix(-1 0 0 1 1298 672)" fill="#133B58"/>
<rect width="10" height="12" transform="matrix(-1 0 0 1 1121 596)" fill="#3C865E"/>
<rect width="10" height="12" transform="matrix(-1 0 0 1 1065 575)" fill="#3C865E"/>
<rect width="10" height="12" transform="matrix(-1 0 0 1 1375 626)" fill="#0F293E"/>
<rect width="10" height="12" transform="matrix(-1 0 0 1 1265 575)" fill="#3C865E"/>
<rect width="10" height="12" transform="matrix(-1 0 0 1 1430 579)" fill="#2D6142"/>
<rect width="10" height="12" transform="matrix(-1 0 0 1 1413 590)" fill="#2D6142"/>
<rect width="10" height="12" transform="matrix(-1 0 0 1 938 575)" fill="#3C865E"/>
<rect width="10" height="23" transform="matrix(-1 0 0 1 960 579)" fill="#3C865E"/>
<rect width="10" height="23" transform="matrix(-1 0 0 1 858 637)" fill="#133B58"/>
<rect width="10" height="12" transform="matrix(-1 0 0 1 1432 632)" fill="#0F293E"/>
<rect width="10" height="12" transform="matrix(-1 0 0 1 1413 675)" fill="#0F293E"/>
<rect width="10" height="23" transform="matrix(-1 0 0 1 1413 632)" fill="#0F293E"/>
<rect width="10" height="23" transform="matrix(-1 0 0 1 918 666)" fill="#133B58"/>
<rect width="10" height="23" transform="matrix(-1 0 0 1 1183 575)" fill="#3C865E"/>
<rect width="10" height="23" transform="matrix(-1 0 0 1 1258 666)" fill="#133B58"/>
<rect width="10" height="23" transform="matrix(-1 0 0 1 1121 654)" fill="#133B58"/>
<rect width="10" height="23" transform="matrix(-1 0 0 1 1380 569)" fill="#2D6142"/>
<rect width="10" height="23" transform="matrix(-1 0 0 1 1280 643)" fill="#133B58"/>
<path d="M232 361H315V366C315 371.523 310.523 376 305 376H242C236.477 376 232 371.523 232 366V361Z" fill="#16425E"/>
<path d="M250 376H268.38V411.004C268.38 413.765 266.141 416.004 263.38 416.004H255C252.239 416.004 250 413.765 250 411.004V376Z" fill="#16425E"/>
<path d="M281 376H299.38V411.004C299.38 413.765 297.141 416.004 294.38 416.004H286C283.239 416.004 281 413.765 281 411.004V376Z" fill="#16425E"/>
<path d="M232.489 316.572C232.489 311.049 236.966 306.572 242.489 306.572H304.659C310.182 306.572 314.659 311.049 314.659 316.572V361.172H232.489V316.572Z" fill="#295D77"/>
<path d="M314.659 315.762H331.148C336.671 315.762 341.148 320.239 341.148 325.762V334.142H314.659V315.762Z" fill="#295D77"/>
<rect x="243.841" y="336.305" width="59.465" height="17.8395" rx="5" fill="#16425E"/>
<path d="M243.841 321.303C243.841 318.541 246.08 316.303 248.841 316.303H266.412C269.173 316.303 271.412 318.541 271.412 321.303V326.439C271.412 329.201 269.173 331.439 266.412 331.439H248.841C246.08 331.439 243.841 329.201 243.841 326.439V321.303Z" fill="#16425E"/>
<path d="M323.849 334.142H341.148V363.74C341.148 366.501 338.909 368.74 336.148 368.74H328.849C326.087 368.74 323.849 366.501 323.849 363.74V334.142Z" fill="#295D77"/>
<path d="M232.489 316H216C210.477 316 206 320.477 206 326V334.38H232.489V316Z" fill="#295D77"/>
<path d="M223.299 334.38H206V363.978C206 366.739 208.239 368.978 211 368.978H218.299C221.06 368.978 223.299 366.739 223.299 363.978V334.38Z" fill="#295D77"/>
<path d="M297.9 306.572L252.491 306.572L252.491 269C252.491 263.477 256.968 259 262.491 259L287.9 259C293.423 259 297.9 263.477 297.9 269L297.9 306.572Z" fill="#16425E"/>
<rect x="274.114" y="316.303" width="4.86532" height="7.56827" rx="2.43266" fill="#B7CF6A"/>
<rect x="290.873" y="316.303" width="4.86532" height="15.1365" rx="2.43266" fill="#B7CF6A"/>
<rect x="298.441" y="316.303" width="4.86532" height="15.1365" rx="2.43266" fill="#E86661"/>
<rect x="281.683" y="323.33" width="4.86532" height="7.56827" rx="2.43266" fill="#F7C65A"/>
<rect x="260.059" y="273.596" width="11.3524" height="11.3524" rx="3" fill="#F7C65A"/>
<rect x="278.439" y="273.596" width="11.3524" height="11.3524" rx="3" fill="#F7C65A"/>
<rect x="347" y="537" width="100" height="157" fill="#62F7CB" fill-opacity="0.7"/>
<rect x="304" y="416" width="76" height="121" fill="#62F7CB" fill-opacity="0.7"/>
<g opacity="0.6">
<rect x="313" y="426" width="4.27586" height="36" rx="2" fill="#72F0CA"/>
<rect x="335.448" y="454" width="4.27586" height="61" rx="2" fill="#72F0CA"/>
<rect x="412.414" y="543" width="4.27586" height="61" rx="2" fill="#72F0CA"/>
<rect x="365.379" y="574" width="4.27586" height="61" rx="2" fill="#72F0CA"/>
<rect x="361.103" y="418" width="4.27586" height="57" rx="2" fill="#72F0CA"/>
<rect x="432.724" y="596" width="4.27586" height="36" rx="2" fill="#72F0CA"/>
<rect x="432.724" y="637" width="4.27586" height="21" rx="2" fill="#72F0CA"/>
<rect x="361.103" y="480" width="4.27586" height="21" rx="2" fill="#72F0CA"/>
<rect x="384.621" y="669" width="4.27586" height="57" rx="2" transform="rotate(-180 384.621 669)" fill="#72F0CA"/>
<rect x="384.621" y="607" width="4.27586" height="21" rx="2" transform="rotate(-180 384.621 607)" fill="#72F0CA"/>
</g>
<path d="M380 522H432C440.284 522 447 528.716 447 537V537H380V522Z" fill="#62F7CB" fill-opacity="0.7"/>
<path d="M-7 392H360C371.046 392 380 400.954 380 412V416H-7V392Z" fill="#62F7CB" fill-opacity="0.7"/>
<path d="M347 555.5V537H332C343.2 537 346.5 549.333 347 555.5Z" fill="#62F7CB" fill-opacity="0.7"/>
<rect x="-7" y="663" width="354" height="31" fill="#62F7CB" fill-opacity="0.7"/>
<rect x="447" y="662" width="988" height="32" fill="#62F7CB" fill-opacity="0.7"/>
<rect width="10" height="12" transform="matrix(-1 0 0 1 1057 517)" fill="#3C865E"/>
<rect width="10" height="12" transform="matrix(-1 0 0 1 1001 496)" fill="#3C865E"/>
<rect width="10" height="12" transform="matrix(-1 0 0 1 1201 496)" fill="#3C865E"/>
<rect width="10" height="23" transform="matrix(-1 0 0 1 1119 496)" fill="#3C865E"/>
<rect x="1046" y="426" width="10" height="12" fill="#61D38D"/>
<rect x="1346" y="414" width="10" height="12" fill="#61D38D"/>
<rect x="1221" y="447" width="10" height="12" fill="#61D38D"/>
<rect x="1206" y="402" width="10" height="12" fill="#61D38D"/>
<rect x="1093" y="397" width="10" height="12" fill="#61D38D"/>
<rect x="996" y="426" width="10" height="12" fill="#61D38D"/>
<rect x="1167" y="418" width="10" height="23" fill="#61D38D"/>
<rect x="1260" y="397" width="10" height="23" fill="#61D38D"/>
<path d="M1253 482L1272.5 320H1262L1243 482H1253Z" fill="#372E2E" fill-opacity="0.4"/>
<path d="M1303 482L1322.5 320H1312L1293 482H1303Z" fill="#372E2E" fill-opacity="0.4"/>
<rect x="1253.92" y="311.923" width="10" height="173.415" rx="5" transform="rotate(6.79559 1253.92 311.923)" fill="#70543E"/>
<path d="M1269.97 341L1270.45 337H1302L1301.49 341H1269.97Z" fill="#372E2E" fill-opacity="0.4"/>
<path d="M1267.07 365L1267.56 361H1299.03L1298.52 365H1267.07Z" fill="#372E2E" fill-opacity="0.4"/>
<path d="M1264.18 389L1264.68 385H1295.96L1295.45 389H1264.18Z" fill="#372E2E" fill-opacity="0.4"/>
<path d="M1261.3 413L1261.77 409H1292.96L1292.45 413H1261.3Z" fill="#372E2E" fill-opacity="0.4"/>
<path d="M1258.4 437L1258.92 433H1292L1291.46 437H1258.4Z" fill="#372E2E" fill-opacity="0.4"/>
<rect x="1310.66" y="330" width="7" height="55" rx="3.5" transform="rotate(90 1310.66 330)" fill="#886348"/>
<rect x="1307.66" y="354" width="7" height="55" rx="3.5" transform="rotate(90 1307.66 354)" fill="#886348"/>
<rect x="1304.66" y="378" width="7" height="55" rx="3.5" transform="rotate(90 1304.66 378)" fill="#886348"/>
<rect x="1298.66" y="426" width="7" height="55" rx="3.5" transform="rotate(90 1298.66 426)" fill="#886348"/>
<rect x="1296.66" y="446" width="7" height="55" rx="3.5" transform="rotate(90 1296.66 446)" fill="#886348"/>
<rect x="1301.66" y="402" width="7" height="55" rx="3.5" transform="rotate(90 1301.66 402)" fill="#886348"/>
<rect x="1304.58" y="311" width="10" height="143" rx="5" transform="rotate(6.79559 1304.58 311)" fill="#70543E"/>
<rect x="1136" y="441" width="10" height="12" fill="#61D38D"/>
<rect x="1420" y="402" width="10" height="12" fill="#3C865E"/>
<path d="M1415 425H1425V437H1415V425Z" fill="#3C865E"/>
<rect x="1020" y="439" width="10" height="23" fill="#61D38D"/>
<rect x="1356" y="467" width="57" height="70" fill="#78A443"/>
<rect x="1383" y="474" width="10" height="12" fill="#86B351"/>
<rect x="1393" y="517" width="10" height="12" fill="#86B351"/>
<rect x="1367" y="483" width="10" height="12" fill="#86B351"/>
<mask id="mask2_24_225" style="mask-type:alpha" maskUnits="userSpaceOnUse" x="1196" y="441" width="160" height="96">
<path d="M1356 537V441H1277.78C1267.9 441 1258.66 445.863 1253.06 454.004L1196 537H1356Z" fill="#D9D9D9"/>
</mask>
<g mask="url(#mask2_24_225)">
<rect x="1197" y="467" width="159" height="70" fill="#A9E760"/>
<rect x="1197" y="459" width="159" height="8" fill="#78A443"/>
<rect x="1197" y="441" width="159" height="18" fill="#D1FC88"/>
</g>
<rect x="1356" y="459" width="57" height="8" fill="#5A7B34"/>
<path d="M1356 441H1395C1404.94 441 1413 449.059 1413 459H1356V441Z" fill="#97B35E"/>
<path d="M1120.49 532.86C1120.49 527.337 1124.96 522.86 1130.49 522.86H1222.66V527.996C1222.66 533.519 1218.18 537.996 1212.66 537.996H1120.49V532.86Z" fill="#216093"/>
<path d="M1120.49 537.996H1138.87V573C1138.87 575.761 1136.63 578 1133.87 578H1125.49C1122.73 578 1120.49 575.761 1120.49 573V537.996Z" fill="#216093"/>
<path d="M1174.01 537.996H1192.39V573C1192.39 575.761 1190.15 578 1187.39 578H1179.01C1176.24 578 1174.01 575.761 1174.01 573V537.996Z" fill="#216093"/>
<path d="M1140.49 478.26C1140.49 472.737 1144.97 468.26 1150.49 468.26H1212.66C1218.18 468.26 1222.66 472.737 1222.66 478.26V522.86H1140.49V478.26Z" fill="#37889B"/>
<path d="M1222.66 477.45H1239.15C1244.67 477.45 1249.15 481.927 1249.15 487.45V495.83H1222.66V477.45Z" fill="#37889B"/>
<rect x="1151.84" y="497.992" width="59.465" height="17.8395" rx="5" fill="#216093"/>
<path d="M1151.84 482.991C1151.84 480.229 1154.08 477.991 1156.84 477.991H1174.41C1177.17 477.991 1179.41 480.229 1179.41 482.991V488.127C1179.41 490.889 1177.17 493.127 1174.41 493.127H1156.84C1154.08 493.127 1151.84 490.889 1151.84 488.127V482.991Z" fill="#216093"/>
<path d="M1231.85 495.83H1249.15V525.428C1249.15 528.189 1246.91 530.428 1244.15 530.428H1236.85C1234.09 530.428 1231.85 528.189 1231.85 525.428V495.83Z" fill="#37889B"/>
<path d="M1140.49 494.749L1124 494.749C1118.48 494.749 1114 490.272 1114 484.749L1114 476.369L1140.49 476.369L1140.49 494.749Z" fill="#37889B"/>
<path d="M1131.3 476.369L1114 476.369L1114 446.771C1114 444.01 1116.24 441.771 1119 441.771L1126.3 441.771C1129.06 441.771 1131.3 444.01 1131.3 446.771L1131.3 476.369Z" fill="#37889B"/>
<path d="M1205.9 468.26L1160.49 468.26L1160.49 430.688C1160.49 425.165 1164.97 420.688 1170.49 420.688L1195.9 420.688C1201.42 420.688 1205.9 425.165 1205.9 430.688L1205.9 468.26Z" fill="#216093"/>
<rect x="1182.11" y="477.991" width="4.86532" height="7.56827" rx="2.43266" fill="#B7CF6A"/>
<rect x="1198.87" y="477.991" width="4.86532" height="15.1365" rx="2.43266" fill="#B7CF6A"/>
<rect x="1206.44" y="477.991" width="4.86532" height="15.1365" rx="2.43266" fill="#E86661"/>
<rect x="1189.68" y="485.018" width="4.86532" height="7.56827" rx="2.43266" fill="#F7C65A"/>
<rect x="1168.06" y="435.284" width="11.3524" height="11.3524" rx="3" fill="#F7C65A"/>
<rect x="1186.44" y="435.284" width="11.3524" height="11.3524" rx="3" fill="#F7C65A"/>
<path d="M412.5 376C415 381.5 418.5 396.9 412.5 414.5" stroke="#467438" stroke-width="3"/>
<path d="M395 396H400C408.284 396 415 402.716 415 411V416H410C401.716 416 395 409.284 395 401V396Z" fill="#467438"/>
<path d="M435 396H430C421.716 396 415 402.716 415 411V416H420C428.284 416 435 409.284 435 401V396Z" fill="#467438"/>
<path d="M389 367.637L393.787 366.193C401.718 363.801 410.087 368.291 412.48 376.222L413.923 381.009L409.136 382.453C401.205 384.845 392.836 380.355 390.444 372.424L389 367.637Z" fill="#F7F7F7"/>
<path d="M427.296 356.086L422.509 357.53C414.578 359.922 410.087 368.291 412.48 376.222L413.923 381.009L418.71 379.565C426.642 377.173 431.132 368.804 428.74 360.873L427.296 356.086Z" fill="#F7F7F7"/>
<path d="M405.456 354L403.092 358.406C399.175 365.706 401.918 374.799 409.218 378.715L413.624 381.079L415.987 376.673C419.904 369.373 417.162 360.281 409.862 356.364L405.456 354Z" fill="#F7F7F7"/>
<path d="M1125.5 279C1123 284.5 1119.5 299.9 1125.5 317.5" stroke="#467438" stroke-width="3"/>
<path d="M1143 299H1138C1129.72 299 1123 305.716 1123 314V319H1128C1136.28 319 1143 312.284 1143 304V299Z" fill="#467438"/>
<path d="M1103 299H1108C1116.28 299 1123 305.716 1123 314V319H1118C1109.72 319 1103 312.284 1103 304V299Z" fill="#467438"/>
<path d="M1149 270.637L1144.21 269.193C1136.28 266.801 1127.91 271.291 1125.52 279.222L1124.08 284.009L1128.86 285.453C1136.79 287.845 1145.16 283.355 1147.56 275.424L1149 270.637Z" fill="#F7F7F7"/>
<path d="M1110.7 259.086L1115.49 260.53C1123.42 262.922 1127.91 271.291 1125.52 279.222L1124.08 284.009L1119.29 282.565C1111.36 280.173 1106.87 271.804 1109.26 263.873L1110.7 259.086Z" fill="#F7F7F7"/>
<path d="M1132.54 257L1134.91 261.406C1138.82 268.706 1136.08 277.799 1128.78 281.715L1124.38 284.079L1122.01 279.673C1118.1 272.373 1120.84 263.281 1128.14 259.364L1132.54 257Z" fill="#F7F7F7"/>
<path d="M202 517H207C215.284 517 222 523.716 222 532V537H217C208.716 537 202 530.284 202 522V517Z" fill="#467438"/>
<path d="M242 517H237C228.716 517 222 523.716 222 532V537H227C235.284 537 242 530.284 242 522V517Z" fill="#467438"/>
<path d="M1340 421H1345C1353.28 421 1360 427.716 1360 436V441H1355C1346.72 441 1340 434.284 1340 426V421Z" fill="#467438"/>
<path d="M1380 421H1375C1366.72 421 1360 427.716 1360 436V441H1365C1373.28 441 1380 434.284 1380 426V421Z" fill="#467438"/>
<path d="M908 519H913C921.284 519 928 525.716 928 534V539H923C914.716 539 908 532.284 908 524V519Z" fill="#467438"/>
<path d="M948 519H943C934.716 519 928 525.716 928 534V539H933C941.284 539 948 532.284 948 524V519Z" fill="#467438"/>
</svg>
