<svg width="76" height="47" viewBox="0 0 76 47" fill="none" xmlns="http://www.w3.org/2000/svg">
<path d="M20.0098 0V2.5H12.5098V5H10.0098V10H12.5098V12.5H15.0098V15H17.5098V17.5H20.0098V20H22.5098V22.5H25.0098V30H22.5098V32.5H20.0098V35H7.50977V32.5H17.5098V30H20.0098V25H17.5098V22.5H15.0098V20H12.5098V17.5H10.0098V15H7.50977V12.5H5.00977V5H7.50977V2.5H10.0098V0H20.0098ZM25.0098 0H27.5098V5H25.0098V0ZM20.0098 2.5H22.5098V5H20.0098V2.5ZM22.5098 5H25.0098V10H22.5098V5ZM5.00977 25V30H2.50977V25H5.00977ZM0.00976562 30H2.50977V35H0.00976562V30ZM5.00977 30H7.50977V32.5H5.00977V30Z" fill="#10324B"/>
<path d="M50.5 39.5V37H53V42H50.5V47H45.5V39.5H43V29.5H40.5V22H38V14.5H35.5V12H43V19.5H45.5V29.5H48V39.5H50.5ZM75.5 12V14.5H73V22H70.5V32H68V39.5H65.5V44.5H68V47H58V44.5H60.5V39.5H63V32H65.5V22H68V17H65.5V12H75.5ZM63 19.5V17H65.5V19.5H63ZM60.5 19.5H63V24.5H60.5V19.5ZM35.5 22H38V32H35.5V22ZM58 24.5H60.5V29.5H58V24.5ZM55.5 32V29.5H58V32H55.5ZM33 32H35.5V39.5H33V32ZM53 32H55.5V37H53V32ZM30.5 39.5H33V44.5H35.5V47H28V44.5H30.5V39.5Z" fill="#10324B"/>
</svg>
