<svg width="1440" height="456" viewBox="0 0 1440 456" fill="none" xmlns="http://www.w3.org/2000/svg">
<mask id="mask0_308_717" style="mask-type:alpha" maskUnits="userSpaceOnUse" x="0" y="0" width="1440" height="456">
<rect width="1440" height="456" fill="#D9D9D9"/>
</mask>
<g mask="url(#mask0_308_717)">
<path d="M669 423H1039V456H669V423Z" fill="#7FE7D9" fill-opacity="0.7"/>
<rect x="1298" y="317" width="10" height="10" fill="#3C865E"/>
<rect width="10" height="11" transform="matrix(-1 0 0 1 1251 335)" fill="#3C865E"/>
<rect x="1415" y="313" width="10" height="10" fill="#2B6B44"/>
<rect x="1385" y="336" width="10" height="20" fill="#2B6B44"/>
<rect x="366" y="390" width="10" height="20" fill="#3F3224"/>
<rect y="369" width="594" height="54" fill="#372613"/>
<rect x="446" y="375" width="10" height="10" fill="#3F3224"/>
<rect x="473" y="384" width="10" height="10" fill="#3F3224"/>
<rect x="537" y="380" width="10" height="20" fill="#3F3224"/>
<rect width="10" height="11" transform="matrix(-1 0 0 1 516 406)" fill="#3F3224"/>
<rect x="569" y="375" width="10" height="10" fill="#3F3224"/>
<path d="M0 350H575C585.493 350 594 358.507 594 369V369H0V350Z" fill="#377B56"/>
<rect x="562" y="407" width="10" height="10" fill="#3F3224"/>
<rect x="429" y="393" width="10" height="10" transform="rotate(180 429 393)" fill="#3F3224"/>
<rect x="337" y="400" width="10" height="20" transform="rotate(180 337 400)" fill="#3F3224"/>
<rect width="10" height="11" transform="matrix(1 0 0 -1 363 385)" fill="#3F3224"/>
<rect x="181" y="375" width="10" height="10" fill="#3F3224"/>
<rect x="208" y="384" width="10" height="10" fill="#3F3224"/>
<rect x="738" y="269" width="10" height="20" fill="#3C865E"/>
<rect x="164" y="393" width="10" height="10" transform="rotate(180 164 393)" fill="#3F3224"/>
<rect x="695" y="268" width="10" height="10" fill="#3C865E"/>
<rect x="72" y="400" width="10" height="20" transform="rotate(180 72 400)" fill="#3F3224"/>
<rect width="10" height="11" transform="matrix(1 0 0 -1 98 385)" fill="#3F3224"/>
<rect x="409" y="403" width="10" height="10" transform="rotate(180 409 403)" fill="#3F3224"/>
<rect x="774" y="132" width="10" height="10" fill="#3C865E"/>
<rect x="568" y="225" width="177" height="91" fill="#372613"/>
<rect x="679" y="249" width="10" height="10" transform="rotate(180 679 249)" fill="#3F3224"/>
<path d="M695 240L695 296L664 296L664 260C664 248.954 672.954 240 684 240L695 240Z" fill="black" fill-opacity="0.3"/>
<rect x="679" y="256" width="266" height="123" fill="#265F3C"/>
<rect x="679" y="296" width="266" height="83" fill="#265F3C"/>
<rect x="679" y="256" width="213" height="53" fill="#377B56"/>
<rect x="855" y="137" width="10" height="10" fill="#3C865E"/>
<rect x="568" y="172" width="177" height="53" fill="#377B56"/>
<rect x="825" y="188" width="10" height="20" fill="#3C865E"/>
<path d="M568 172C568 163.163 575.163 156 584 156H729C737.837 156 745 163.163 745 172V172H568V172Z" fill="#56BC7A"/>
<rect x="731" y="112" width="496" height="73" fill="#377B56"/>
<rect x="733" y="126" width="496" height="70" fill="#377B56"/>
<path d="M1226 152L1226 196L1192 196L1192 172C1192 160.954 1200.95 152 1212 152L1226 152Z" fill="black" fill-opacity="0.2"/>
<rect x="731" y="195" width="496" height="216" fill="#377B56"/>
<rect width="10" height="11" transform="matrix(-1 0 0 1 830 163)" fill="#3C865E"/>
<path d="M731 112C731 103.163 738.163 96 747 96H1211C1219.84 96 1227 103.163 1227 112V112H731V112Z" fill="#56BC7A"/>
<rect x="633" y="286" width="10" height="20" transform="rotate(180 633 286)" fill="#3F3224"/>
<rect x="603" y="284" width="10" height="10" transform="rotate(180 603 284)" fill="#3F3224"/>
<rect x="1205" y="168" width="172" height="144" fill="#372613"/>
<path d="M1205 168C1205 159.163 1212.16 152 1221 152H1361C1369.84 152 1377 159.163 1377 168V168H1205V168Z" fill="#377B56"/>
<rect x="659" y="259" width="10" height="10" transform="rotate(180 659 259)" fill="#3F3224"/>
<path d="M679 256C679 247.163 686.163 240 695 240H929C937.837 240 945 247.163 945 256V256H679V256Z" fill="#56BC7A"/>
<rect x="1260" y="152" width="61" height="211" fill="#7FE7D9" fill-opacity="0.9"/>
<rect x="1010" y="211" width="266" height="149" fill="#265F3C"/>
<rect x="1077" y="210" width="199" height="46" fill="#265F3C"/>
<rect x="1223" y="199" width="10" height="20" transform="rotate(180 1223 199)" fill="#3F3224"/>
<rect x="1246" y="185" width="10" height="10" transform="rotate(180 1246 185)" fill="#3F3224"/>
<path d="M1193 283L1193 339L1162 339L1162 303C1162 291.954 1170.95 283 1182 283L1193 283Z" fill="black" fill-opacity="0.2"/>
<rect x="1061" y="211" width="215" height="54" fill="#377B56"/>
<rect x="852" y="194" width="10" height="10" fill="#3C865E"/>
<rect width="10" height="11" transform="matrix(-1 0 0 1 805 212)" fill="#3C865E"/>
<rect x="1077" y="281" width="10" height="20" fill="#2B6B44"/>
<rect x="731" y="112" width="496" height="9" fill="#265F3C"/>
<rect x="731" y="156" width="84" height="17" transform="rotate(90 731 156)" fill="black" fill-opacity="0.3"/>
<path d="M803.673 209.505C785.172 196.445 790.069 173.228 794.83 163.252L840.403 171.415C849.925 170.734 871.419 175.768 881.214 201.343C891.008 226.917 880.76 240.113 874.412 243.514H798.912C794.83 238.072 803.673 235.352 805.033 234.672C806.122 234.127 805.487 226.283 805.033 222.428C803.945 219.707 805.487 217.667 806.394 216.987C804.761 214.81 803.9 211.092 803.673 209.505Z" fill="#10324B" stroke="#10324B"/>
<path d="M819.317 214.946C787.212 206.24 790.069 179.123 795.511 166.653L838.362 169.374L839.723 174.135C859.856 171.959 873.958 189.553 878.493 198.622L871.011 202.703C868.29 199.982 865.796 198.849 864.889 198.622C854.551 194.269 845.617 200.436 842.443 204.063C846.298 197.262 851.15 182.978 839.723 180.257C828.295 177.536 823.171 186.379 822.038 191.14L819.317 214.946Z" fill="#FFE9D4" stroke="#FFE9D4"/>
<path d="M840.403 174.815C848.338 173.682 866.93 176.856 877.813 198.622L875.772 199.982C874.438 196.203 869.836 189.765 861.963 193.618C861.801 193.703 861.642 193.784 861.488 193.86C861.648 193.775 861.806 193.694 861.963 193.618C865.163 191.945 869.874 188.774 866.25 187.739C862.441 186.651 859.221 188.646 858.087 189.779C853.553 188.192 845.028 184.61 847.205 182.978C849.381 181.345 855.367 184.111 858.087 185.698C859.901 185.245 862.713 183.794 859.448 181.617C856.183 179.441 845.391 176.176 840.403 174.815Z" fill="white"/>
<path d="M833.601 173.455C826.527 184.338 815.857 177.536 811.549 173.455L823.398 161.892L833.601 173.455Z" fill="#10324B" stroke="#10324B"/>
<path d="M792.966 160.708C786.054 136.249 797.021 121.978 802.517 117.855C803.35 115.115 811.19 124.476 815.007 129.499C817.088 127.444 823.391 128.643 826.282 129.499C832.816 124.019 846.335 114.019 848.14 117.855C849.944 121.69 846.116 136.462 843.976 143.369C846.524 152.37 845.844 159.171 845.164 161.892C838.322 177.909 829.173 173.677 826.282 169.739C817.164 178.272 804.159 172.832 797.198 167.365C795.08 165.701 793.698 163.3 792.966 160.708Z" fill="#10324B" stroke="#10324B"/>
<path d="M805.077 163.252L810.189 173.455C819.439 176.72 824.349 171.868 826.163 169.374C826.707 173.183 830.244 172.775 832.965 172.775L835.005 172.095L839.087 166.653L833.645 160.532L837.726 143.527L820.041 135.365L805.077 163.252Z" fill="#FFBA79"/>
<path d="M835.005 138.766C840.447 131.148 842.261 135.592 842.487 138.766C840.311 134.957 838.406 137.632 837.726 139.446L839.767 141.487C846.569 152.37 842.487 161.892 841.127 166.653C840.039 170.462 835.232 172.322 832.965 172.775C836.774 171.143 836.819 167.107 836.366 165.293C826.571 159.852 830.924 150.329 834.325 146.248L835.005 138.766Z" fill="#FBD0A8"/>
<path d="M809.839 138.086C805.486 131.012 801.223 135.138 799.636 138.086C803.989 135.365 806.438 137.405 807.118 138.766C803.309 140.398 800.543 143.981 799.636 145.568L792.834 143.527C788.481 160.396 802.357 170.508 809.839 173.455L809.159 167.333L806.438 164.613C811.335 166.245 816.187 163.933 818.001 162.572C828.34 153.866 816.867 142.62 809.839 138.086Z" fill="#FBD0A8"/>
<path d="M825.483 151.689C826.027 148.968 824.803 142.847 824.123 140.126L825.483 138.766C828.204 143.119 826.617 149.195 825.483 151.689Z" fill="#FFE9D4"/>
<path d="M824.122 153.73C822.49 157.539 823.896 162.572 824.803 164.613L824.123 165.293H827.523C825.891 165.293 824.576 157.584 824.122 153.73Z" fill="#FFE9D4"/>
<path d="M835.005 136.045C833.917 132.78 843.168 121.988 847.929 117C845.752 117 832.058 125.162 825.483 129.243C828.748 128.699 833.192 133.551 835.005 136.045Z" fill="#FFE9D4"/>
<path d="M799.636 145.568C796.915 127.067 801.676 121.535 804.397 121.081C803.309 117.272 799.863 120.854 798.276 123.122C793.378 131.828 793.061 140.353 793.514 143.527L799.636 145.568Z" fill="#FFE9D4"/>
<path d="M822.762 166.653C824.395 166.109 825.71 167.787 826.163 168.694C826.617 168.014 827.932 166.653 829.564 166.653C831.196 166.653 831.151 164.84 830.924 163.933H823.442C822.762 163.933 820.722 167.334 822.762 166.653Z" fill="#FF9898" stroke="#FF9898"/>
<path d="M813.24 138.086C817.593 138.086 815.96 133.098 814.6 130.604C826.571 129.516 832.285 135.365 834.325 138.766C839.767 144.207 836.819 145.795 834.325 146.248C828.204 133.325 813.24 145.568 815.28 144.888C816.913 144.343 819.135 147.835 820.041 149.649C816.232 149.649 817.547 152.823 818.681 154.41C820.858 160.396 815.96 162.799 813.24 163.253C811.199 163.706 806.302 163.117 803.037 157.131C799.772 151.145 805.758 146.475 809.158 144.888C809.703 143.255 806.211 144.207 804.397 144.888C805.531 142.62 808.886 138.086 813.24 138.086Z" fill="#FFE9D4"/>
<path d="M835.313 148.804C828.783 153.702 829.872 159.007 831.232 161.048C831.232 159.415 831.685 158.554 831.912 158.327C832.456 160.504 835.767 160.141 837.354 159.687C838.714 159.687 842.795 154.926 841.435 150.845C840.346 147.58 836.9 148.124 835.313 148.804Z" fill="#10324B"/>
<path d="M839.723 149.649C839.723 158.355 834.128 158.78 831.861 156.966C831.317 158.055 831.634 158.78 831.861 159.007C832.869 160.016 833.429 160.354 834.23 160.532C835.371 160.785 837.732 160.301 839.042 159.007C843.175 154.926 840.856 151.009 839.723 149.649Z" fill="#8AEAFF"/>
<circle cx="836.673" cy="152.205" r="2.04055" fill="white"/>
<path d="M814.83 148.804C821.359 153.702 820.271 159.007 818.911 161.048C818.911 159.415 818.457 158.554 818.231 158.327C817.686 160.504 814.376 160.141 812.789 159.687C811.429 159.687 807.348 154.926 808.708 150.845C809.796 147.58 813.243 148.124 814.83 148.804Z" fill="#10324B"/>
<path d="M810.42 149.649C810.42 158.355 816.015 158.78 818.282 156.966C818.826 158.055 818.509 158.78 818.282 159.007C817.273 160.016 816.714 160.354 815.913 160.532C814.772 160.785 812.41 160.301 811.1 159.007C806.968 154.926 809.287 151.009 810.42 149.649Z" fill="#8AEAFF"/>
<circle cx="2.04055" cy="2.04055" r="2.04055" transform="matrix(-1 0 0 1 815.51 150.165)" fill="white"/>
<path d="M792.11 142.847C793.697 143.754 797.959 145.704 802.312 146.248" stroke="#10324B" stroke-width="1.5" stroke-linecap="round"/>
<path d="M792.11 147.608C793.47 147.381 796.599 147.744 798.231 151.009" stroke="#10324B" stroke-width="1.5" stroke-linecap="round"/>
<path d="M858.768 228.55C848.429 224.197 842.217 225.376 840.403 226.51C838.226 221.612 839.496 215.4 840.403 212.906C842.443 207.238 849.789 196.854 862.849 200.663C875.908 204.472 875.546 216.307 873.732 221.748C873.052 225.829 869.106 232.903 858.768 228.55Z" fill="#FFE9D4"/>
<path d="M860.808 191.14C862.169 190.913 863.529 189.78 866.93 188.419M864.889 195.901C866.25 195.674 867.61 194.541 871.011 193.18M847.205 182.978C849.813 183.723 854.657 185.264 856.603 186.394C857.099 186.682 857.827 186.819 858.325 186.534L862.169 184.338" stroke="#10324B" stroke-width="2" stroke-linecap="round"/>
<path d="M792.11 153.05C793.243 153.503 795.239 154.274 796.871 153.73" stroke="#10324B" stroke-width="1.5" stroke-linecap="round"/>
<path d="M792.79 157.811C793.924 158.718 797.143 160.26 800.952 159.171" stroke="#10324B" stroke-width="1.5" stroke-linecap="round"/>
<path d="M801.266 156.34C801.205 155.791 800.71 155.396 800.162 155.457C799.613 155.518 799.217 156.012 799.278 156.561L801.266 156.34ZM810.475 166.653L811.473 166.589L811.441 166.096L811.029 165.821L810.475 166.653ZM809.871 172.839L809.936 173.837L811.931 173.709L811.867 172.711L809.871 172.839ZM799.278 156.561C799.401 157.666 799.799 159.517 800.614 161.191C801.413 162.829 802.748 164.566 804.869 164.919L805.198 162.946C804.054 162.756 803.122 161.771 802.412 160.315C801.72 158.894 801.37 157.276 801.266 156.34L799.278 156.561ZM804.869 164.919C807.852 165.416 809.042 166.9 809.92 167.485L811.029 165.821C810.548 165.5 808.744 163.537 805.198 162.946L804.869 164.919ZM809.477 166.718L809.871 172.839L811.867 172.711L811.473 166.589L809.477 166.718Z" fill="#10324B"/>
<circle cx="800.272" cy="153.73" r="2.52591" stroke="#10324B" stroke-width="1.75"/>
<circle cx="800.272" cy="153.73" r="0.680183" fill="#10324B"/>
<path d="M795.511 141.487C795.511 124.618 800.952 120.854 803.673 121.081C798.231 121.625 798.231 135.365 798.912 142.167L795.511 141.487Z" fill="#FFBA79"/>
<path d="M834.281 134.005C835.914 128.563 842.67 121.308 845.844 118.36C836.322 122.442 828.84 130.604 830.2 130.604C831.288 130.604 833.374 132.871 834.281 134.005Z" fill="#FFBA79"/>
<path d="M825.439 172.095C822.718 174.816 818.41 175.496 816.596 175.496C824.214 182.026 830.2 177.31 832.241 174.135C830.064 174.68 826.799 173.002 825.439 172.095Z" fill="#FFE9D4"/>
<path d="M869.725 216.399C869.272 211.864 866.052 203.067 856.802 204.156C847.551 205.244 846.145 213.225 846.599 217.079C848.775 214.903 851.133 217.533 852.04 219.12C853.627 220.934 858.026 223.881 862.923 221.16C867.82 218.44 866.778 213.678 865.644 211.638C862.243 206.876 860.202 207.557 859.522 206.876C858.978 206.332 859.296 206.196 859.522 206.196C866.052 207.285 867.684 213.452 867.684 216.399L869.725 216.399Z" fill="white"/>
<path d="M866.93 226.51C868.29 226.283 879.173 209.505 860.128 203.383" stroke="#10324B" stroke-width="2" stroke-linecap="round"/>
<path d="M873.169 205.346L873.052 205.424C873.052 205.311 873.085 205.263 873.169 205.346L879.173 201.343C880.307 203.61 882.574 209.097 882.574 212.906C881.214 213.132 879.037 214.674 878.493 219.027C878.493 220.388 878.221 223.925 874.412 227.19C875.772 224.469 877.949 217.531 875.772 211.545C874.136 207.046 873.422 205.596 873.169 205.346Z" fill="#FFE9D4"/>
<path d="M821.358 185.699C806.122 190.052 797.778 175.723 795.511 168.014C792.79 172.911 792.563 182.751 792.79 187.059C795.511 202.295 803.446 207.918 807.074 208.825C792.382 197.398 794.15 185.018 796.871 180.257C797.607 188.963 802.619 195.221 805.033 197.262C803.945 196.173 804.58 193.181 805.033 191.82C805.033 195.085 809.568 199.075 811.835 200.663C809.795 196.581 811.835 189.099 811.835 191.82C811.835 193.997 814.102 195.901 815.236 196.581C814.692 193.861 819.09 188.193 821.358 185.699Z" fill="white"/>
<path d="M879.173 201.343L877.133 202.703C879.309 204.335 880.76 210.638 881.214 213.586L882.574 212.906C882.574 209.097 880.307 203.61 879.173 201.343Z" fill="white"/>
<path d="M880.534 216.987C881.078 219.163 880.307 221.975 879.853 223.109L883.254 225.829C883.798 222.564 883.481 217.667 883.254 215.627C882.71 214.538 881.214 216.08 880.534 216.987Z" fill="#FFE9D4"/>
<path d="M881.214 217.667C881.214 220.388 880.76 222.882 880.534 223.789L881.894 224.469C882.438 223.381 882.574 219.027 882.574 216.987L881.214 217.667Z" fill="white"/>
<path d="M852.646 202.703C840.131 207.6 840.176 220.161 841.763 225.829H840.403C839.042 221.748 838.362 204.743 851.966 200.662C862.849 197.397 869.651 204.29 871.691 208.144C865.161 199.982 856.274 201.116 852.646 202.703Z" fill="white"/>
<circle cx="860.128" cy="213.586" r="4.0811" fill="#10324B"/>
<path d="M882.574 228.55C882.03 227.462 881.214 226.509 879.173 225.829C878.629 226.918 876.226 229.003 875.092 229.91C868.97 233.311 864.889 232.631 854.006 229.91C845.3 227.734 839.949 228.55 838.362 229.23C833.601 230.591 830.2 233.991 830.88 237.392C831.56 240.793 834.281 242.154 839.042 239.433C843.804 236.712 847.885 238.753 857.407 240.793C866.93 242.834 870.331 242.154 875.092 240.113C879.853 238.073 883.254 229.91 882.574 228.55Z" fill="#FFBA79"/>
<path d="M841.763 229.91C831.968 230.454 830.88 236.485 831.56 239.433C830.653 237.392 830.2 232.631 835.641 229.91C841.083 227.19 849.699 228.777 853.326 229.91C856.727 230.591 858.245 232.631 866.25 232.631C874.254 232.631 878.201 228.096 879.173 225.829L880.534 226.509C880.08 228.777 876.725 233.447 866.93 233.991C854.687 234.672 854.006 229.23 841.763 229.91Z" fill="#FFE9D4"/>
<path d="M832.921 236.032C832.921 234.445 834.553 231.407 841.083 231.951C839.042 232.178 834.553 233.311 832.921 236.032Z" fill="#FFE9D4"/>
<path d="M826.119 187.739C825.925 188.019 825.623 188.288 825.623 188.625C827.035 188.625 829.126 189.528 830.382 188.863C830.418 188.844 832.142 189.099 830.88 187.059C831.598 185.624 832.558 187.589 834.281 187.059C835.979 186.536 835.626 186.904 837.212 187.739C838.079 188.195 840.186 186.76 840.474 187.694C840.744 188.572 838.177 188.189 838.063 189.099C837.976 189.791 838.023 191.887 837.682 192.5C837.274 193.235 836.442 192.966 835.641 193.286C834.689 193.667 835.989 195.591 834.931 195.554C833.971 195.519 834.411 194.42 833.528 193.979C832.891 193.661 832.536 192.513 832.142 191.9C831.594 191.048 830.382 191.612 830.382 190.574C830.382 190.213 824.223 191.023 824.174 191.9C824.148 192.359 824.174 192.827 824.174 193.286C824.174 195.116 824.955 197.262 825.843 198.86C825.942 199.038 826.131 199.295 826.291 199.431C826.635 199.722 826.622 199.706 826.819 199.361C827.39 198.363 828.139 197.676 829.073 197.065C829.917 196.514 831.137 196.284 832.142 196.439C833.084 196.584 834.474 196.807 835.309 197.303C836.215 197.843 836.59 198.925 836.974 199.837C837.103 200.142 837.212 200.57 837.212 200.901C837.212 201.182 837.946 200.774 838.063 200.684C838.889 200.041 839.807 199.516 840.645 198.864C841.877 197.906 842.613 196.434 843.298 195.063L843.336 194.987C844.325 193.009 844.141 190.929 844.141 188.782C844.141 187.778 843.549 186.313 843.098 185.413C842.011 183.238 839.389 182.011 837.037 182.011C834.644 182.011 832.402 182.395 830.315 183.554C828.321 184.662 827.385 185.911 826.119 187.739Z" fill="#FFE9D4" stroke="#FFE9D4" stroke-width="0.5" stroke-linecap="round"/>
<path d="M841.083 183.658C832.377 180.937 829.293 185.699 828.84 188.419H826.119C831.56 179.713 838.362 181.617 841.083 183.658Z" fill="white"/>
<path fill-rule="evenodd" clip-rule="evenodd" d="M834.51 183.658L836.907 183.916C836.638 185.433 836.751 187.905 839.355 185.655L840.634 187.48C839.541 188.17 838.1 189.673 841.083 190.163L840.858 192.247C839.723 192.02 837.895 192.16 839.663 194.543L837.931 195.938C837.287 194.744 835.873 193.123 835.374 196.19L833.186 195.954C833.367 194.919 833.179 193.276 830.972 194.978L829.555 193.455C830.551 192.684 831.81 191.104 828.875 190.957L829.099 188.873C830.138 189.02 831.839 188.683 830.34 186.16L831.748 184.836C832.758 185.894 834.725 187.139 834.51 183.658ZM834.657 193.056C836.154 193.217 837.497 192.134 837.659 190.638C837.82 189.142 836.737 187.798 835.241 187.637C833.745 187.476 832.401 188.558 832.24 190.055C832.079 191.551 833.161 192.895 834.657 193.056Z" fill="#10324B"/>
<circle cx="834.949" cy="190.346" r="2.47502" transform="rotate(6.14607 834.949 190.346)" stroke="#8AEAFF" stroke-width="0.5"/>
<circle cx="834.949" cy="190.346" r="1.2577" transform="rotate(6.14607 834.949 190.346)" fill="white"/>
<path d="M829.16 199.302C834.057 197.126 835.735 200.209 835.961 202.023C835.735 202.476 835.145 203.927 831.88 203.383C828.615 202.839 828.479 200.209 829.16 199.302Z" fill="#FFE9D4"/>
<path d="M835.961 202.023C834.828 201.116 831.88 199.438 829.159 199.982C830.747 199.075 834.329 198.214 835.961 202.023Z" fill="white"/>
<path d="M828.627 204.546C829.045 204.918 829.469 205.204 830.027 205.352C830.27 205.417 831.56 205.424 831.919 205.083" stroke="#8AEAFF" stroke-width="0.75" stroke-linecap="round"/>
<path d="M828.325 206.729C828.337 206.839 828.568 206.978 828.653 207.032C829.133 207.334 829.52 207.464 830.105 207.562C830.401 207.693 831.602 207.531 831.785 207.166" stroke="#8AEAFF" stroke-width="0.75" stroke-linecap="round"/>
<path d="M828.09 208.98C828.678 209.644 829.507 209.864 830.359 209.812C830.685 209.792 830.918 209.751 831.206 209.644C831.299 209.61 831.506 209.504 831.55 209.417" stroke="#8AEAFF" stroke-width="0.75" stroke-linecap="round"/>
<path d="M839.042 202.703C839.587 201.615 840.629 201.343 841.083 201.343C839.995 202.431 839.723 204.97 839.723 206.104L837.682 206.784C838.77 205.696 839.042 203.61 839.042 202.703Z" fill="#FFE9D4"/>
<path d="M836.322 206.784C837.41 205.696 837.229 204.063 837.002 203.383L834.281 204.744L833.601 208.825L836.322 206.784Z" fill="#FFE9D4"/>
<path d="M837.002 203.383V204.063C835.914 204.063 835.188 204.97 834.961 205.424C834.961 205.968 834.508 207.464 834.281 208.145L833.601 208.825L834.281 204.744L837.002 203.383Z" fill="white"/>
<path d="M826.119 210.185C824.486 210.185 824.078 212.452 824.078 213.586C822.99 213.586 821.811 214.04 821.358 214.266L823.398 198.622C823.398 197.534 823.422 198.329 823.434 198.862C823.76 200.048 826.211 202.326 827.479 203.383C827.479 204.472 826.572 208.371 826.119 210.185Z" fill="#FFE9D4"/>
<path d="M827.479 203.383C825.847 202.839 824.078 199.982 823.398 198.622L821.358 214.266C821.902 213.722 822.491 213.586 822.718 213.586L824.078 201.343C824.622 202.431 826.572 203.61 827.479 204.064V203.383Z" fill="white"/>
<path d="M825.439 214.266C824.895 213.178 826.119 211.999 826.799 211.545C829.52 214.266 836.095 210.412 839.042 208.145C836.866 212.498 835.415 217.214 834.961 219.027C833.329 215.763 829.747 216.76 828.159 217.667C827.479 214.266 826.119 215.627 825.439 214.266Z" fill="#FFE9D4"/>
<path d="M837.682 210.185L839.042 208.145C837.954 208.145 837.002 209.505 834.961 210.865C832.921 212.906 827.933 213.133 826.799 212.226L826.119 212.906C827.479 214.039 830.744 215.763 832.921 213.586C835.097 211.409 836.775 210.412 837.682 210.185Z" fill="white"/>
<path d="M824.364 215.752C824.719 215.847 825.037 216.198 825.279 216.454C825.985 217.201 826.122 218.541 826.122 219.497C825.905 219.932 825.526 220.242 825.326 220.691C824.012 223.647 823.691 226.288 822.962 229.349C822.658 230.628 822.424 232.157 822.424 233.484C822.424 233.577 822.485 233.883 822.424 233.945C822.4 233.968 822.148 233.781 822.12 233.752C821.985 233.618 821.789 233.588 821.607 233.588C821.281 233.588 820.911 233.539 820.593 233.612C820.115 233.72 819.755 233.744 819.311 233.983C819.048 234.125 818.777 234.361 818.515 234.478C818.299 234.574 818.244 234.746 818.351 234.452C818.423 234.255 818.497 234.064 818.575 233.869C819.069 232.634 819.326 230.873 819.472 229.562C819.697 227.537 819.893 225.547 820.294 223.544C820.468 222.675 820.504 221.706 820.504 220.821C820.504 220.083 820.556 219.303 820.775 218.597C820.919 218.132 821.06 217.764 821.303 217.326C821.574 216.837 821.844 216.472 822.237 216.08C822.81 215.506 823.621 215.554 824.364 215.752Z" fill="#FFE9D4"/>
<path d="M827.479 236.032C827.248 235.735 826.721 235.432 826.444 235.182C826.189 234.953 823.993 234.061 824.083 233.949C824.568 233.342 825.116 232.476 825.328 231.733C825.489 231.169 825.715 230.606 825.896 230.042C826.083 229.458 826.228 228.868 826.413 228.291C826.894 226.796 826.793 225.176 827.198 223.646C827.463 222.643 827.762 221.673 828.279 220.768C829.07 219.384 830.769 219.277 832.147 219.778C832.792 220.012 833.533 220.696 833.792 221.324C833.601 223.789 832.921 226.509 832.241 229.23L832.241 229.23C831.306 230.061 829.806 231.442 829.17 232.555C828.949 232.941 828.287 236.814 828.159 236.712C828.01 236.593 827.596 236.182 827.479 236.032Z" fill="#FFE9D4"/>
<path d="M832.241 221.748C828.976 220.116 826.799 229.684 826.119 234.672L824.078 233.992C827.479 228.55 826.119 227.87 827.479 223.109C828.568 219.3 831.107 219.254 832.241 219.708V221.748Z" fill="white"/>
<path d="M822.718 216.307C825.439 215.219 825.665 218.121 825.439 219.708C825.439 218.619 824.078 218.347 823.398 218.347C822.491 218.574 820.813 219.844 821.358 223.109C821.902 226.373 821.131 231.271 820.677 233.311L819.317 233.992C820.405 231.271 820.677 226.056 820.677 223.789C820.224 221.748 819.997 217.395 822.718 216.307Z" fill="white"/>
<path d="M805.713 220.388C805.713 219.844 806.62 219.708 807.074 219.708L807.754 233.991H806.394C806.167 229.684 805.713 220.932 805.713 220.388Z" fill="white"/>
<path d="M813.191 237.312C813.084 236.247 810.9 235.114 809.795 234.672L809.114 219.708C810.747 219.164 812.062 220.388 812.515 221.068L813.193 237.326C813.194 237.348 813.195 237.37 813.195 237.392C813.195 238.481 813.193 237.792 813.191 237.312Z" fill="#FFE9D4"/>
<path d="M809.114 219.707C809.114 219.163 810.021 219.707 810.475 219.707L811.155 235.352L809.794 234.672C809.568 230.364 809.114 220.252 809.114 219.707Z" fill="white"/>
<path d="M802.312 242.834H799.592C798.231 239.433 800.952 236.032 807.074 236.712C811.971 237.256 812.288 241.02 811.835 242.834H809.114C809.341 242.38 809.522 241.337 808.434 240.793C807.346 240.249 807.074 241.927 807.074 242.834H804.353C803.265 241.201 804.353 238.979 805.033 238.073C802.312 238.073 802.086 241.247 802.312 242.834Z" fill="#FFBA79"/>
<path d="M817.277 242.834H814.556C815.236 239.433 814.556 237.392 821.358 236.712C826.799 236.168 827.706 240.567 827.479 242.834H824.759C824.985 242.38 825.167 241.337 824.078 240.793C822.99 240.249 822.718 241.927 822.718 242.834H819.317C818.229 240.657 819.771 238.753 820.677 238.073C817.957 238.073 817.277 241.247 817.277 242.834Z" fill="#FFBA79"/>
<path d="M822.038 240.113C823.126 239.025 825.212 238.299 826.119 238.073C825.439 237.392 823.126 236.168 819.317 236.712C815.508 237.256 814.556 240.567 814.556 242.154C815.1 239.977 816.596 239.886 817.277 240.113C818.365 237.936 819.997 237.846 820.677 238.073C819.045 239.161 819.09 241.247 819.317 242.154C819.317 239.433 821.131 239.66 822.038 240.113Z" fill="#FFE9D4"/>
<path d="M807.074 240.113C807.074 238.481 809.341 238.073 810.475 238.073C809.114 237.392 805.577 236.304 802.313 237.392C799.048 238.481 799.138 241.02 799.592 242.154C799.592 239.977 801.406 239.886 802.313 240.113C802.857 238.481 804.353 238.073 805.033 238.073C803.945 240.249 804.126 241.247 804.353 241.473C804.353 239.297 806.167 239.66 807.074 240.113Z" fill="#FFE9D4"/>
<path d="M1184.75 34.974C1161.87 38.0059 1154.77 59.4356 1154.09 69.7714C1152.71 86.6533 1168.21 103.88 1183.03 102.157C1194.88 100.779 1199.22 104.799 1199.91 106.981C1203.22 116.352 1214.61 119.843 1219.89 120.417H1253.65H1270.54C1281.47 120.417 1286.65 107.972 1286.65 106.24L1283.63 11.2015C1282.25 6.79155 1276.85 5.22969 1274.33 5H1213.69C1206.11 6.03359 1194.51 11.2015 1191.98 20.5038C1189.37 30.1126 1187.5 34.2849 1184.75 34.974Z" fill="#275C40"/>
<mask id="mask1_308_717" style="mask-type:alpha" maskUnits="userSpaceOnUse" x="1154" y="5" width="128" height="116">
<path d="M1184.15 34.974C1161.72 38.0059 1154.76 59.4356 1154.08 69.7714C1152.73 86.6533 1167.93 103.88 1182.46 102.157C1194.08 100.779 1198.34 104.799 1199.01 106.981C1202.26 116.352 1213.43 119.843 1218.61 120.417H1251.71H1268.27C1277.46 120.417 1280.65 117.202 1281.1 115.594V11.2015C1279.75 6.79155 1274.46 5.22969 1271.98 5H1212.53C1205.09 6.03359 1194.02 10.7014 1191.07 20.9039C1188.32 30.4561 1186.85 34.285 1184.15 34.974Z" fill="#275C40"/>
</mask>
<g mask="url(#mask1_308_717)">
<path d="M1185.92 28.9725C1163.48 32.0044 1156.52 53.4341 1155.85 63.77C1154.5 80.6519 1169.7 97.8783 1184.23 96.1557C1195.85 94.7775 1200.1 98.797 1200.78 100.979C1204.02 110.35 1212.58 115.642 1217.76 116.217L1253.48 114.416H1270.03C1279.22 114.416 1282.42 111.2 1282.87 109.592V5.20005C1281.52 0.790085 1276.23 -0.771779 1273.75 -1.00146H1214.29C1206.86 0.0321217 1195.49 5.20005 1193.01 14.5023C1190.45 24.1112 1188.62 28.2835 1185.92 28.9725Z" fill="#3F8E5B"/>
</g>
<path d="M1301.66 33.9791C1322.65 36.9103 1329.17 57.6286 1329.8 67.6214C1331.06 83.9429 1316.83 100.598 1303.24 98.9321C1292.36 97.5997 1288.37 101.486 1287.74 103.595C1284.71 112.656 1274.25 116.031 1269.4 116.586H1238.41H1222.92C1214.32 116.586 1211.32 113.477 1210.9 111.923V10.9957C1212.17 6.73208 1217.12 5.22206 1219.44 5H1275.09C1282.05 5.99928 1292.7 10.9957 1295.01 19.9892C1297.41 29.279 1299.13 33.3129 1301.66 33.9791Z" fill="#3F8E5B"/>
<rect x="1242.28" y="43.2427" width="11.0249" height="157.105" rx="5.51246" fill="#10324B"/>
<rect x="1212.66" y="74.8789" width="11.0249" height="54.4532" rx="5.51246" transform="rotate(-38.2811 1212.66 74.8789)" fill="#10324B"/>
<rect x="1268.39" y="80.4518" width="11.0249" height="39.8347" rx="5.51246" transform="rotate(45 1268.39 80.4518)" fill="#10324B"/>
<path d="M1206.19 75.1425C1199.48 78.5479 1191.28 75.8666 1187.87 69.1535V69.1535V69.1535C1194.58 65.748 1202.79 68.4294 1206.19 75.1425V75.1425V75.1425Z" fill="#55BD7B"/>
<path d="M1225.93 56.2003C1218.55 54.7101 1213.78 47.5205 1215.27 40.1421V40.1421V40.1421C1222.65 41.6323 1227.42 48.8219 1225.93 56.2003V56.2003V56.2003Z" fill="#55BD7B"/>
<path d="M1235.13 34.821C1228.76 30.8102 1226.85 22.395 1230.86 16.025V16.025V16.025C1237.23 20.0358 1239.14 28.451 1235.13 34.821V34.821V34.821Z" fill="#55BD7B"/>
<path d="M1263.97 70.0138C1263.56 62.4979 1269.31 56.0673 1276.83 55.6507V55.6507V55.6507C1277.25 63.1667 1271.49 69.5972 1263.97 70.0138V70.0138V70.0138Z" fill="#55BD7B"/>
<path d="M97.1286 233.974C120.005 237.006 127.103 258.436 127.792 268.771C129.17 285.653 113.666 302.88 98.8513 301.157C86.9995 299.779 82.6584 303.799 81.9694 305.981C78.6619 315.352 67.2695 318.843 61.9867 319.417H28.2229H11.341C0.403221 319.417 -4.76964 306.972 -4.76964 305.24L-1.75113 210.202C-0.373016 205.792 5.0246 204.23 7.55114 204H68.1882C75.7679 205.034 87.3674 210.202 89.8935 219.504C92.5029 229.113 94.3724 233.285 97.1286 233.974Z" fill="#275C40"/>
<mask id="mask2_308_717" style="mask-type:alpha" maskUnits="userSpaceOnUse" x="0" y="204" width="128" height="116">
<path d="M97.7273 233.974C120.159 237.006 127.118 258.436 127.793 268.771C129.145 285.653 113.943 302.88 99.4164 301.157C87.7954 299.779 83.5388 303.799 82.8632 305.981C79.6201 315.352 68.4495 318.843 63.2696 319.417H30.1631H13.6099C4.42119 319.417 1.22315 316.202 0.77272 314.594V210.202C2.12401 205.792 7.41653 204.23 9.89388 204H69.3504C76.7824 205.034 87.8619 209.701 90.8042 219.904C93.559 229.456 95.0247 233.285 97.7273 233.974Z" fill="#275C40"/>
</mask>
<g mask="url(#mask2_308_717)">
<path d="M95.9619 227.973C118.393 231.004 125.352 252.434 126.028 262.77C127.379 279.652 112.177 296.878 97.651 295.156C86.0299 293.778 81.7734 297.797 81.0978 299.979C77.8547 309.35 69.2947 314.642 64.1148 315.217L28.3977 313.416H11.8445C2.65575 313.416 -0.54229 310.2 -0.992722 308.592V204.2C0.358559 199.79 5.65109 198.228 8.12845 197.999H67.5849C75.017 199.032 86.3907 204.2 88.8676 213.502C91.4262 223.111 93.2593 227.283 95.9619 227.973Z" fill="#3F8E5B"/>
</g>
<path d="M-19.7782 232.979C-40.7749 235.91 -47.289 256.629 -47.9214 266.621C-49.1863 282.943 -34.9566 299.598 -21.3593 297.932C-10.4814 296.6 -6.49712 300.486 -5.86469 302.595C-2.82901 311.656 7.62719 315.031 12.4758 315.586H43.465H58.9596C67.5607 315.586 70.5542 312.477 70.9758 310.923V209.996C69.711 205.732 64.7569 204.222 62.438 204H6.78395C-0.172802 204.999 -10.8191 209.996 -13.1377 218.989C-15.5326 228.279 -17.2485 232.313 -19.7782 232.979Z" fill="#3F8E5B"/>
<rect width="11.0249" height="157.105" rx="5.51246" transform="matrix(-1 0 0 1 39.5923 242.243)" fill="#10324B"/>
<rect width="11.0249" height="54.4532" rx="5.51246" transform="matrix(-0.78498 -0.619521 -0.619521 0.78498 69.2218 273.879)" fill="#10324B"/>
<rect width="11.0249" height="39.8347" rx="5.51246" transform="matrix(-0.707107 0.707107 0.707107 0.707107 13.4911 279.452)" fill="#10324B"/>
<path d="M75.6858 274.142C82.3988 277.548 90.6016 274.867 94.007 268.153V268.153V268.153C87.2939 264.748 79.0912 267.429 75.6858 274.142V274.142V274.142Z" fill="#55BD7B"/>
<path d="M55.9475 255.2C63.326 253.71 68.0993 246.521 66.6091 239.142V239.142V239.142C59.2306 240.632 54.4573 247.822 55.9475 255.2V255.2V255.2Z" fill="#55BD7B"/>
<path d="M46.7486 233.821C53.1186 229.81 55.0311 221.395 51.0203 215.025V215.025V215.025C44.6504 219.036 42.7379 227.451 46.7486 233.821V233.821V233.821Z" fill="#55BD7B"/>
<path d="M17.9025 269.014C18.319 261.498 12.5639 255.067 5.04795 254.651V254.651V254.651C4.63137 262.167 10.3865 268.597 17.9025 269.014V269.014V269.014Z" fill="#55BD7B"/>
<path d="M1010 211C1010 202.163 1017.16 195 1026 195H1260C1268.84 195 1276 202.163 1276 211V211H1010V211Z" fill="#56BC7A"/>
<rect x="884" y="96" width="235" height="17" transform="rotate(90 884 96)" fill="black" fill-opacity="0.2"/>
<rect x="878" y="96" width="189" height="310" fill="#7FE7D9" fill-opacity="0.9"/>
<rect x="1200" y="127" width="10" height="10" fill="#3C865E"/>
<rect x="769" y="325" width="10" height="10" fill="#3C865E"/>
<rect x="826" y="318" width="10" height="10" fill="#3C865E"/>
<rect x="810" y="323" width="10" height="20" fill="#3C865E"/>
<rect x="1142" y="168" width="10" height="10" fill="#3C865E"/>
<rect x="1121" y="137" width="10" height="10" fill="#3C865E"/>
<rect x="748" y="143" width="10" height="20" fill="#3C865E"/>
<rect x="1091" y="160" width="10" height="20" fill="#3C865E"/>
<rect x="695" y="204" width="10" height="10" fill="#3C865E"/>
<rect x="631" y="200" width="10" height="10" fill="#3C865E"/>
<rect x="577" y="201" width="10" height="10" fill="#3C865E"/>
<rect x="654" y="183" width="10" height="20" fill="#3C865E"/>
<rect x="773" y="283" width="10" height="10" fill="#3C865E"/>
<rect x="864" y="263" width="10" height="10" fill="#3C865E"/>
<rect x="844" y="285" width="10" height="20" fill="#3C865E"/>
<rect width="10" height="11" transform="matrix(-1 0 0 1 839 289)" fill="#3C865E"/>
<rect x="1168" y="235" width="10" height="10" fill="#3C865E"/>
<rect x="1149" y="247" width="10" height="10" fill="#3C865E"/>
<rect x="1109" y="239" width="10" height="10" fill="#3C865E"/>
<rect x="1216" y="220" width="10" height="10" fill="#3C865E"/>
<rect x="1133" y="221" width="10" height="20" fill="#3C865E"/>
<rect x="1239" y="237" width="10" height="20" fill="#3C865E"/>
<rect x="1258" y="218" width="10" height="20" fill="#3C865E"/>
<rect x="1090" y="220" width="10" height="10" fill="#3C865E"/>
<rect width="10" height="11" transform="matrix(-1 0 0 1 1234 241)" fill="#3C865E"/>
<rect x="746" y="213" width="10" height="10" fill="#3C865E"/>
<g opacity="0.8">
<path d="M441 129C441 123.477 445.477 119 451 119H585C590.523 119 595 123.477 595 129V202.473C595 207.995 590.523 212.473 585 212.473H451C445.477 212.473 441 207.995 441 202.473V129Z" fill="#10324B"/>
<circle cx="468.582" cy="133.557" r="4.59701" fill="#F7C65A"/>
<circle cx="457.09" cy="133.557" r="4.59701" fill="#E86661"/>
<circle cx="480.075" cy="133.557" r="4.59701" fill="#B7CF6A"/>
<rect x="460.154" y="148.881" width="74.3184" height="6.12935" rx="3.06468" fill="#5F767E"/>
<rect x="473.179" y="187.955" width="79.6816" height="6.12935" rx="3.06468" fill="#5F767E"/>
<rect x="555.925" y="187.955" width="27.5821" height="6.12935" rx="3.06468" fill="#899EA5"/>
<rect x="483.905" y="161.906" width="59.7612" height="6.12935" rx="3.06468" fill="#899EA5"/>
<rect x="460.92" y="174.93" width="122.587" height="6.12935" rx="3.06468" fill="#899EA5"/>
<rect x="539.836" y="148.881" width="36.7761" height="6.12935" rx="3.06468" fill="#9483E0"/>
<rect x="451.726" y="161.906" width="29.1144" height="6.12935" rx="3.06468" fill="#E86661"/>
<rect x="451.726" y="187.955" width="18.3881" height="6.12935" rx="3.06468" fill="#F7C65A"/>
</g>
<rect x="1354" y="325" width="10" height="10" fill="#3F3224"/>
<rect x="587" y="256" width="10" height="20" transform="rotate(180 587 256)" fill="#3F3224"/>
<rect width="10" height="11" transform="matrix(1 0 0 -1 613 241)" fill="#3F3224"/>
<g opacity="0.8">
<path d="M493 197C493 191.477 497.477 187 503 187H637C642.523 187 647 191.477 647 197V270.473C647 275.995 642.523 280.473 637 280.473H503C497.477 280.473 493 275.995 493 270.473V197Z" fill="#10324B"/>
<circle cx="520.582" cy="201.557" r="4.59701" fill="#F7C65A"/>
<circle cx="509.09" cy="201.557" r="4.59701" fill="#E86661"/>
<circle cx="532.075" cy="201.557" r="4.59701" fill="#B7CF6A"/>
<rect x="512" y="217" width="41" height="6" rx="3" fill="#F7C65A"/>
<rect x="525.179" y="255.955" width="79.6816" height="6.12935" rx="3.06468" fill="#5F767E"/>
<rect x="607.925" y="255.955" width="27.5821" height="6.12935" rx="3.06468" fill="#F7C65A"/>
<rect x="536" y="230" width="98" height="6" rx="3" fill="#899EA5"/>
<rect x="512.92" y="242.93" width="122.587" height="6.12935" rx="3.06468" fill="#9483E0"/>
<rect x="558" y="217" width="71" height="6" rx="3" fill="#E86661"/>
<rect x="503.726" y="229.906" width="29.1144" height="6.12935" rx="3.06468" fill="#5F767E"/>
<rect x="503.726" y="255.955" width="18.3881" height="6.12935" rx="3.06468" fill="#899EA5"/>
</g>
<rect x="1366" y="197" width="10" height="10" transform="rotate(180 1366 197)" fill="#3F3224"/>
<rect x="1361" y="242" width="10" height="20" transform="rotate(180 1361 242)" fill="#3F3224"/>
<rect width="10" height="11" transform="matrix(1 0 0 -1 1328 269)" fill="#3F3224"/>
<rect x="1346" y="207" width="10" height="10" transform="rotate(180 1346 207)" fill="#3F3224"/>
<circle cx="668.487" cy="259.872" r="29.6427" transform="rotate(9.62485 668.487 259.872)" fill="#3F8E5B"/>
<circle cx="671.844" cy="276.504" r="30.8609" transform="rotate(9.62485 671.844 276.504)" fill="#275C40"/>
<circle cx="638.276" cy="272.87" r="29.6427" transform="rotate(9.62485 638.276 272.87)" fill="#3F8E5B"/>
<circle cx="602.657" cy="286.188" r="21.1153" transform="rotate(9.62485 602.657 286.188)" fill="#3F8E5B"/>
<circle cx="642.238" cy="288.369" r="28.0184" transform="rotate(9.62485 642.238 288.369)" fill="#275C40"/>
<circle cx="624.37" cy="303.873" r="21.1153" transform="rotate(9.62485 624.37 303.873)" fill="#3F8E5B"/>
<circle cx="707.876" cy="282.614" r="27.6124" transform="rotate(9.62485 707.876 282.614)" fill="#3F8E5B"/>
<circle cx="714.722" cy="293.248" r="27.2063" transform="rotate(9.62485 714.722 293.248)" fill="#275C40"/>
<rect x="491" y="334" width="10" height="20" fill="#3F3224"/>
<rect x="517" y="323" width="10" height="10" fill="#3F3224"/>
<rect x="598" y="328" width="10" height="10" fill="#3F3224"/>
<rect x="479" y="312" width="266" height="62" fill="#372613"/>
<rect x="717" y="343" width="10" height="20" fill="#3F3224"/>
<path d="M479 316C479 304.954 487.954 296 499 296H725C736.046 296 745 304.954 745 316V316H479V316Z" fill="#56BC7A"/>
<rect x="618" y="296" width="61" height="111" fill="#7FE7D9" fill-opacity="0.7"/>
<rect width="10" height="11" transform="matrix(-1 0 0 1 573 354)" fill="#3F3224"/>
<rect x="695" y="327" width="10" height="10" fill="#3F3224"/>
<rect x="1103" y="276" width="10" height="10" fill="#2B6B44"/>
<rect x="1160" y="269" width="10" height="10" fill="#2B6B44"/>
<rect width="10" height="11" transform="matrix(-1 0 0 1 1104 299)" fill="#2B6B44"/>
<rect x="1241" y="269" width="10" height="10" fill="#2B6B44"/>
<path opacity="0.3" fill-rule="evenodd" clip-rule="evenodd" d="M1181.02 254.609L1189.27 246.602C1194.02 252.213 1203.44 259.334 1203.12 242.922L1213.71 243.79C1212.91 249.907 1214.04 259.778 1224.93 250.325L1231.89 257.503C1227.6 260.974 1222.54 268.11 1236.67 268.891L1236.51 279.496C1230.16 278.221 1219.91 278.466 1229.64 289.646L1222.1 296.957C1218.86 293.136 1212.25 288.816 1211.77 302.104L1201.86 302.661C1202.07 296.653 1200.11 287.217 1190.62 297.54L1183.66 290.362C1187.36 287 1191.32 279.729 1177.49 277.539L1176.92 268.337C1183.88 267.853 1194.45 264.431 1181.02 254.609ZM1215.95 282.719C1221.11 277.72 1221.23 269.49 1216.23 264.337C1211.23 259.183 1203 259.058 1197.85 264.058C1192.7 269.057 1192.57 277.287 1197.57 282.44C1202.57 287.594 1210.8 287.718 1215.95 282.719Z" fill="#10324B"/>
<circle opacity="0.3" cx="1206.9" cy="273.388" r="6" transform="rotate(-44.1302 1206.9 273.388)" fill="#10324B"/>
<path opacity="0.3" fill-rule="evenodd" clip-rule="evenodd" d="M1119.88 105L1131.32 106.231C1130.03 113.469 1130.57 125.261 1143 114.529L1149.1 123.233C1143.88 126.527 1137.01 133.699 1151.24 136.036L1150.17 145.978C1144.75 144.892 1136.03 145.562 1144.46 156.93L1136.2 163.584C1133.13 157.889 1126.39 150.156 1124.01 164.785L1113.57 163.661C1114.43 158.725 1113.53 150.884 1103 159.003L1096.24 151.738C1101 148.059 1107.01 140.525 1093 139.822L1094.07 129.879C1099.02 130.58 1107.14 128.974 1099.99 116.939L1106.71 110.621C1111.53 115.667 1120.91 121.606 1119.88 105ZM1120.59 149.833C1127.73 150.602 1134.14 145.438 1134.9 138.3C1135.67 131.161 1130.51 124.751 1123.37 123.983C1116.23 123.214 1109.82 128.378 1109.05 135.516C1108.28 142.654 1113.45 149.064 1120.59 149.833Z" fill="#10324B"/>
<circle opacity="0.3" cx="1121.98" cy="136.908" r="6" transform="rotate(6.14607 1121.98 136.908)" fill="#10324B"/>
<path opacity="0.3" fill-rule="evenodd" clip-rule="evenodd" d="M1186.68 197.929L1175.44 200.369C1174.37 193.097 1170.13 182.078 1161.74 196.181L1153.2 189.849C1157.11 185.077 1161.37 176.102 1147.13 178.376L1145 168.604C1150.48 167.925 1158.55 164.537 1146.96 156.411L1152.7 147.49C1157.41 151.924 1166.25 157.133 1163.89 142.501L1174.15 140.272C1174.89 145.229 1178.22 152.386 1185.65 141.358L1194.36 146.119C1191.01 151.11 1187.68 160.155 1201.19 156.402L1203.32 166.174C1198.39 167.072 1191.2 171.159 1201.78 180.322L1197.41 188.436C1191.24 185.17 1180.46 182.496 1186.68 197.929ZM1171.86 155.609C1164.84 157.133 1160.39 164.056 1161.91 171.072C1163.44 178.088 1170.36 182.541 1177.37 181.017C1184.39 179.494 1188.84 172.571 1187.32 165.555C1185.8 158.538 1178.87 154.086 1171.86 155.609Z" fill="#10324B"/>
<circle opacity="0.3" cx="1174.62" cy="168.313" r="6" transform="rotate(167.748 1174.62 168.313)" fill="#10324B"/>
<path opacity="0.3" fill-rule="evenodd" clip-rule="evenodd" d="M1163.34 198.309L1174.37 201.568C1171.81 208.459 1170.23 220.157 1184.37 211.824L1188.82 221.48C1183.09 223.786 1175.05 229.611 1188.63 234.459L1185.8 244.049C1180.66 242.011 1171.96 241.108 1178.22 253.802L1168.9 258.869C1166.9 252.715 1161.65 243.899 1156.69 257.865L1146.62 254.889C1148.35 250.189 1148.87 242.313 1137.06 248.415L1131.71 240.056C1137.05 237.289 1144.31 230.953 1130.65 227.752L1133.49 218.162C1138.24 219.739 1146.51 219.613 1141.63 206.491L1149.37 201.479C1153.21 207.306 1161.38 214.83 1163.34 198.309ZM1156 242.543C1162.89 244.578 1170.12 240.646 1172.15 233.76C1174.19 226.875 1170.26 219.644 1163.37 217.609C1156.48 215.574 1149.25 219.506 1147.22 226.391C1145.18 233.277 1149.12 240.508 1156 242.543Z" fill="#10324B"/>
<circle opacity="0.3" cx="1159.69" cy="230.076" r="6" transform="rotate(16.4645 1159.69 230.076)" fill="#10324B"/>
<rect x="1144" y="274" width="10" height="20" fill="#2B6B44"/>
<ellipse cx="940.5" cy="297" rx="8.5" ry="8" fill="#F7FFFE"/>
<ellipse cx="927" cy="322" rx="14" ry="13" fill="#E2FAF4"/>
<path fill-rule="evenodd" clip-rule="evenodd" d="M1186.51 253.022L1194.76 245.015C1199.51 250.626 1208.93 257.747 1208.61 241.335L1219.2 242.203C1218.4 248.32 1219.53 258.191 1230.42 248.738L1237.38 255.916C1233.09 259.387 1228.03 266.523 1242.16 267.304L1242 277.909C1235.65 276.634 1225.4 276.879 1235.13 288.059L1227.59 295.37C1224.35 291.549 1217.74 287.229 1217.26 300.517L1207.35 301.074C1207.56 295.066 1205.6 285.631 1196.11 295.953L1189.15 288.775C1192.85 285.413 1196.81 278.142 1182.98 275.952L1182.41 266.75C1189.37 266.266 1199.94 262.844 1186.51 253.022ZM1221.44 281.132C1226.59 276.133 1226.72 267.903 1221.72 262.75C1216.72 257.596 1208.49 257.471 1203.34 262.471C1198.18 267.47 1198.06 275.7 1203.06 280.853C1208.06 286.007 1216.29 286.132 1221.44 281.132Z" fill="#F7C65A"/>
<rect x="1177" y="299" width="280" height="77" fill="#372613"/>
<rect x="1048" y="283" width="5" height="71" rx="2" fill="#80E1D2"/>
<path d="M1177 299C1177 290.163 1184.16 283 1193 283H1457V299H1177V299Z" fill="#56BC7A"/>
<rect x="1200" y="319" width="10" height="20" fill="#3F3224"/>
<rect x="1226" y="308" width="10" height="10" fill="#3F3224"/>
<circle cx="1212.39" cy="271.801" r="6" transform="rotate(-44.1302 1212.39 271.801)" fill="#F7C65A"/>
<rect x="1307" y="313" width="10" height="10" fill="#3F3224"/>
<rect x="1426" y="328" width="10" height="20" fill="#3F3224"/>
<path d="M730.689 429.494V350.551H779.105L934.958 365.63C940.86 361.018 950.636 366.074 954.786 369.178L978.302 359.421C989 351.615 996.593 360.308 999.052 365.63L988.908 369.178L1004.12 381.596L1062.68 365.63C1053.83 351.793 1067.91 352.768 1076.06 354.986C1062.78 343.632 1070.52 331.924 1076.06 327.489H1103.26L1119.86 352.768H1226.84V429.494H730.689Z" fill="#E2FAF4"/>
<ellipse cx="790.171" cy="380.265" rx="17.0609" ry="16.8531" fill="#E2FAF4"/>
<ellipse cx="926.658" cy="358.977" rx="17.0609" ry="16.8531" fill="#E2FAF4"/>
<ellipse cx="970.002" cy="367.848" rx="17.0609" ry="16.8531" fill="#E2FAF4"/>
<ellipse cx="1093.58" cy="328.819" rx="17.0609" ry="16.8531" fill="#E2FAF4"/>
<ellipse cx="994.902" cy="380.265" rx="17.0609" ry="16.8531" fill="#E2FAF4"/>
<ellipse cx="825.215" cy="360.308" rx="26.283" ry="26.1667" fill="#E2FAF4"/>
<ellipse cx="794.782" cy="350.994" rx="17.0609" ry="16.8531" fill="#E2FAF4"/>
<ellipse cx="672.2" cy="391.489" rx="33.1995" ry="31.4887" fill="#C2E9E3"/>
<ellipse cx="1052.08" cy="365.186" rx="17.0609" ry="16.8531" fill="#E2FAF4"/>
<ellipse cx="869.481" cy="392.24" rx="32.7384" ry="32.3757" fill="#E2FAF4"/>
<ellipse cx="819.682" cy="386.475" rx="22.5941" ry="21.2881" fill="#C2E9E3"/>
<ellipse cx="875.476" cy="347.89" rx="38.7328" ry="38.5847" fill="#E2FAF4"/>
<ellipse cx="1101.42" cy="401.997" rx="38.7328" ry="38.5847" fill="#E2FAF4"/>
<ellipse cx="853.804" cy="401.997" rx="34.5829" ry="33.2627" fill="#F7FFFE"/>
<ellipse cx="688.583" cy="422.263" rx="34.5829" ry="33.2627" fill="#F7FFFE"/>
<ellipse cx="819.682" cy="403.328" rx="17.0609" ry="16.8531" fill="#E2FAF4"/>
<ellipse cx="785.56" cy="419.737" rx="34.5829" ry="33.2627" fill="#F7FFFE"/>
<ellipse cx="761.583" cy="364.743" rx="34.5829" ry="33.2627" fill="#F7FFFE"/>
<ellipse cx="713.583" cy="408.263" rx="34.5829" ry="33.2627" fill="#F7FFFE"/>
<ellipse cx="614.583" cy="399.263" rx="34.5829" ry="33.2627" fill="#F7FFFE"/>
<ellipse cx="794.321" cy="349.22" rx="12.9109" ry="12.4181" fill="#C2E9E3"/>
<ellipse cx="1134.16" cy="328.376" rx="32.7384" ry="32.3757" fill="#E2FAF4"/>
<ellipse cx="875.015" cy="348.777" rx="34.5829" ry="33.2627" fill="#F7FFFE"/>
<ellipse cx="1120.78" cy="350.994" rx="29.5107" ry="28.3842" fill="#F7FFFE"/>
<ellipse cx="1174.27" cy="360.308" rx="38.7328" ry="38.5847" fill="#E2FAF4"/>
<ellipse cx="981.991" cy="398.449" rx="27.2052" ry="26.1667" fill="#C2E9E3"/>
<ellipse cx="1034.56" cy="396.675" rx="32.7384" ry="32.3757" fill="#E2FAF4"/>
<ellipse cx="1081.13" cy="387.805" rx="33.1995" ry="31.4887" fill="#C2E9E3"/>
<ellipse cx="875.015" cy="360.752" rx="22.5941" ry="21.2881" fill="#E2FAF4"/>
<ellipse cx="864.87" cy="405.989" rx="22.5941" ry="21.2881" fill="#E2FAF4"/>
<ellipse cx="640.594" cy="410.288" rx="22.5941" ry="21.2881" fill="#E2FAF4"/>
<ellipse cx="1133.23" cy="339.463" rx="22.5941" ry="21.2881" fill="#C2E9E3"/>
<ellipse cx="1192.72" cy="387.805" rx="33.1995" ry="31.4887" fill="#C2E9E3"/>
<ellipse cx="1149.83" cy="405.545" rx="34.5829" ry="33.2627" fill="#F7FFFE"/>
<ellipse cx="1059.46" cy="415.302" rx="34.5829" ry="33.2627" fill="#F7FFFE"/>
<ellipse cx="1170.12" cy="360.308" rx="34.5829" ry="33.2627" fill="#F7FFFE"/>
<ellipse cx="970.463" cy="367.847" rx="14.7554" ry="14.1921" fill="#F7FFFE"/>
<ellipse cx="922.047" cy="370.952" rx="21.6719" ry="20.8446" fill="#F7FFFE"/>
<ellipse cx="1109.72" cy="421.511" rx="33.1995" ry="31.4887" fill="#E2FAF4"/>
<ellipse cx="905.909" cy="384.701" rx="12.9109" ry="12.4181" fill="#C2E9E3"/>
<ellipse cx="1047.93" cy="423.729" rx="12.9109" ry="12.4181" fill="#C2E9E3"/>
<ellipse cx="1153.06" cy="405.989" rx="12.9109" ry="12.4181" fill="#C2E9E3"/>
<ellipse cx="931.731" cy="414.415" rx="38.7328" ry="38.5847" fill="#E2FAF4"/>
<ellipse cx="997.207" cy="419.294" rx="14.7554" ry="14.1921" fill="#F7FFFE"/>
<ellipse cx="1052.54" cy="367.847" rx="14.7554" ry="14.1921" fill="#F7FFFE"/>
<ellipse cx="1095.88" cy="329.706" rx="14.7554" ry="14.1921" fill="#F7FFFE"/>
<ellipse cx="1086.66" cy="343.011" rx="14.7554" ry="14.1921" fill="#F7FFFE"/>
<ellipse cx="926.658" cy="415.302" rx="34.5829" ry="33.2627" fill="#F7FFFE"/>
<ellipse cx="1101.5" cy="293" rx="8.5" ry="8" fill="#C2E9E3"/>
<ellipse cx="1016.5" cy="349" rx="8.5" ry="8" fill="#F7FFFE"/>
<ellipse cx="895.5" cy="295" rx="8.5" ry="8" fill="#E2FAF4"/>
<rect width="334" height="21" transform="matrix(-1 0 0 1 1440 402)" fill="#372613"/>
<path d="M296.528 306.457H365.253V308.877C365.253 314.399 360.776 318.877 355.253 318.877H306.528C301.005 318.877 296.528 314.399 296.528 308.877V306.457Z" fill="#16425E"/>
<path d="M311.432 318.877H326.651V347C326.651 349.761 324.412 352 321.651 352H316.432C313.671 352 311.432 349.761 311.432 347V318.877Z" fill="#16425E"/>
<path d="M337.1 318.877H352.319V347C352.319 349.761 350.081 352 347.319 352H342.1C339.339 352 337.1 349.761 337.1 347V318.877Z" fill="#16425E"/>
<path d="M296.933 271.39C296.933 265.867 301.41 261.39 306.933 261.39H354.97C360.493 261.39 364.97 265.867 364.97 271.39V306.599H296.933V271.39Z" fill="#295D77"/>
<path d="M364.97 268.999H376.903C382.426 268.999 386.903 273.476 386.903 278.999V284.218H364.97V268.999Z" fill="#295D77"/>
<rect x="306.333" y="286.009" width="49.2374" height="14.7712" rx="5" fill="#16425E"/>
<path d="M306.333 274.447C306.333 271.685 308.571 269.447 311.333 269.447H324.161C326.923 269.447 329.161 271.685 329.161 274.447V276.98C329.161 279.741 326.923 281.98 324.161 281.98H311.333C308.571 281.98 306.333 279.741 306.333 276.98V274.447Z" fill="#16425E"/>
<path d="M372.58 284.218H386.903V307.865C386.903 310.627 384.665 312.865 381.903 312.865H377.58C374.818 312.865 372.58 310.627 372.58 307.865V284.218Z" fill="#295D77"/>
<path d="M296.933 269.196H285C279.477 269.196 275 273.673 275 279.196V284.415H296.933V269.196Z" fill="#295D77"/>
<path d="M289.324 284.415H275V308.062C275 310.824 277.239 313.062 280 313.062H284.324C287.085 313.062 289.324 310.824 289.324 308.062V284.415Z" fill="#295D77"/>
<path d="M351.094 261.39L313.495 261.39L313.495 232C313.495 226.477 317.972 222 323.495 222L341.094 222C346.617 222 351.094 226.477 351.094 232L351.094 261.39Z" fill="#16425E"/>
<rect x="331.399" y="269.447" width="4.02851" height="6.26658" rx="2.01426" fill="#B7CF6A"/>
<rect x="345.275" y="269.447" width="4.02851" height="12.5332" rx="2.01426" fill="#B7CF6A"/>
<rect x="351.542" y="269.447" width="4.02851" height="12.5332" rx="2.01426" fill="#E86661"/>
<rect x="337.666" y="275.266" width="4.02851" height="6.26658" rx="2.01426" fill="#F7C65A"/>
<rect x="319.761" y="234.086" width="9.39986" height="9.39986" rx="3" fill="#F7C65A"/>
<rect x="334.98" y="234.086" width="9.39986" height="9.39986" rx="3" fill="#F7C65A"/>
<path d="M1342.51 236.291L1331 236.291C1325.48 236.291 1321 240.768 1321 246.291L1321 251.218L1342.51 251.218L1342.51 236.291Z" fill="#37889B"/>
<path d="M1335.05 251.218L1321 251.218L1321 274.316C1321 277.078 1323.24 279.316 1326 279.316L1330.05 279.316C1332.81 279.316 1335.05 277.078 1335.05 274.316L1335.05 251.218Z" fill="#37889B"/>
<path d="M1323.83 282.976C1323.83 277.454 1328.31 272.976 1333.83 272.976H1406.81V275.269C1406.81 280.792 1402.33 285.269 1396.81 285.269H1323.83V282.976Z" fill="#216093"/>
<path d="M1323.83 285.269H1338.76V312.758C1338.76 315.519 1336.52 317.758 1333.76 317.758H1328.83C1326.07 317.758 1323.83 315.519 1323.83 312.758V285.269Z" fill="#216093"/>
<path d="M1367.3 285.269H1382.22V312.758C1382.22 315.519 1379.98 317.758 1377.22 317.758H1372.3C1369.53 317.758 1367.3 315.519 1367.3 312.758V285.269Z" fill="#216093"/>
<path d="M1340.08 238.635C1340.08 233.112 1344.55 228.635 1350.08 228.635H1396.81C1402.33 228.635 1406.81 233.112 1406.81 238.635V272.977H1340.08V238.635Z" fill="#37889B"/>
<path d="M1406.81 236.098H1418.32C1423.84 236.098 1428.32 240.575 1428.32 246.098V251.025H1406.81V236.098Z" fill="#37889B"/>
<rect x="1349.3" y="252.781" width="48.2932" height="14.488" rx="5" fill="#216093"/>
<path d="M1349.3 241.537C1349.3 238.776 1351.53 236.537 1354.3 236.537H1366.69C1369.45 236.537 1371.69 238.776 1371.69 241.537V243.83C1371.69 246.591 1369.45 248.83 1366.69 248.83H1354.3C1351.53 248.83 1349.3 246.591 1349.3 243.83V241.537Z" fill="#216093"/>
<path d="M1414.27 251.025H1428.32V274.123C1428.32 276.884 1426.08 279.123 1423.32 279.123H1419.27C1416.51 279.123 1414.27 276.884 1414.27 274.123V251.025Z" fill="#37889B"/>
<path d="M1393.2 228.635L1356.32 228.635L1356.32 200C1356.32 194.477 1360.8 190 1366.32 190L1383.2 190C1388.72 190 1393.2 194.477 1393.2 200L1393.2 228.635Z" fill="#216093"/>
<rect x="1373.88" y="236.537" width="3.95127" height="6.14641" rx="1.97563" fill="#B7CF6A"/>
<rect x="1387.49" y="236.537" width="3.95127" height="12.2928" rx="1.97563" fill="#B7CF6A"/>
<rect x="1393.64" y="236.537" width="3.95127" height="12.2928" rx="1.97563" fill="#E86661"/>
<rect x="1380.03" y="242.245" width="3.95127" height="6.14641" rx="1.97563" fill="#F7C65A"/>
<rect x="1362.47" y="201.854" width="9.21962" height="9.21962" rx="3" fill="#F7C65A"/>
<rect x="1377.39" y="201.854" width="9.21962" height="9.21962" rx="3" fill="#F7C65A"/>
<rect x="-6" y="411" width="1446" height="56" fill="#7FE7D9" fill-opacity="0.7"/>
<circle cx="143" cy="360.754" r="33" stroke="#16425E" stroke-width="10"/>
<circle cx="267" cy="360.754" r="33" stroke="#16425E" stroke-width="10"/>
<line x1="184.372" y1="315.733" x2="146.372" y2="358.733" stroke="#F7C65A" stroke-width="9"/>
<path d="M248.5 303.754L178.06 321.641" stroke="#F7C65A" stroke-width="9"/>
<path d="M245.5 310.254L202.5 358.254" stroke="#F7C65A" stroke-width="9"/>
<circle cx="143" cy="360.754" r="8" fill="#295D77"/>
<path d="M175.5 295.254L194 355.673M238.001 288.254L264.805 355.673" stroke="#F7C65A" stroke-width="9"/>
<path d="M249 281.754L237.601 292.754" stroke="#F7C65A" stroke-width="9"/>
<path d="M259.5 283.254L247.5 283.045" stroke="#F7C65A" stroke-width="9" stroke-linecap="round"/>
<circle cx="197" cy="363.754" r="11" fill="#295D77"/>
<path d="M189.5 287.254L161 290.254C161 298.754 168.5 299.254 180.5 297.254C190.1 295.654 190.5 289.92 189.5 287.254Z" fill="#295D77"/>
<circle cx="267" cy="360.754" r="8" fill="#295D77"/>
<circle cx="350.487" cy="350.872" r="29.6427" transform="rotate(9.62485 350.487 350.872)" fill="#3F8E5B"/>
<circle cx="353.844" cy="367.504" r="30.8609" transform="rotate(9.62485 353.844 367.504)" fill="#275C40"/>
<circle cx="320.276" cy="363.87" r="29.6427" transform="rotate(9.62485 320.276 363.87)" fill="#3F8E5B"/>
<circle cx="284.657" cy="377.188" r="21.1153" transform="rotate(9.62485 284.657 377.188)" fill="#3F8E5B"/>
<circle cx="324.237" cy="379.369" r="28.0184" transform="rotate(9.62485 324.237 379.369)" fill="#275C40"/>
<circle cx="306.369" cy="394.873" r="21.1153" transform="rotate(9.62485 306.369 394.873)" fill="#3F8E5B"/>
<circle cx="389.876" cy="373.614" r="27.6124" transform="rotate(9.62485 389.876 373.614)" fill="#3F8E5B"/>
<circle cx="396.722" cy="384.248" r="27.2063" transform="rotate(9.62485 396.722 384.248)" fill="#275C40"/>
<rect y="402" width="446" height="21" fill="#10324B"/>
<path d="M1215 182H1217.31C1225 182 1231.24 188.239 1231.24 195.935V195.935H1228.93C1221.24 195.935 1215 189.696 1215 182V182Z" fill="#55BD7B"/>
<path d="M1247.49 182H1245.18C1237.48 182 1231.24 188.239 1231.24 195.935V195.935H1233.55C1241.25 195.935 1247.49 189.696 1247.49 182V182Z" fill="#55BD7B"/>
<path d="M717 227H719.308C727.004 227 733.243 233.239 733.243 240.935V240.935H730.935C723.239 240.935 717 234.696 717 227V227Z" fill="#55BD7B"/>
<path d="M749.485 227H747.177C739.481 227 733.243 233.239 733.243 240.935V240.935H735.55C743.246 240.935 749.485 234.696 749.485 227V227Z" fill="#55BD7B"/>
<path d="M394 409H396.308C404.004 409 410.243 415.239 410.243 422.935V422.935H407.935C400.239 422.935 394 416.696 394 409V409Z" fill="#55BD7B"/>
<path d="M426.485 409H424.177C416.481 409 410.243 415.239 410.243 422.935V422.935H412.55C420.246 422.935 426.485 416.696 426.485 409V409Z" fill="#55BD7B"/>
<rect x="871" y="435.276" width="4.27586" height="57" rx="2" transform="rotate(-90 871 435.276)" fill="#89EFE1"/>
<rect x="974" y="449.276" width="4.27586" height="21" rx="2" transform="rotate(-90 974 449.276)" fill="#89EFE1"/>
<path fill-rule="evenodd" clip-rule="evenodd" d="M1125.37 103.413L1136.81 104.644C1135.52 111.882 1136.06 123.674 1148.48 112.942L1154.59 121.646C1149.37 124.94 1142.5 132.112 1156.73 134.449L1155.66 144.391C1150.24 143.305 1141.52 143.975 1149.95 155.343L1141.69 161.997C1138.62 156.302 1131.87 148.569 1129.49 163.198L1119.05 162.074C1119.92 157.138 1119.02 149.297 1108.49 157.416L1101.73 150.151C1106.49 146.472 1112.49 138.939 1098.49 138.235L1099.56 128.293C1104.51 128.994 1112.63 127.387 1105.48 115.352L1112.19 109.035C1117.01 114.08 1126.4 120.019 1125.37 103.413ZM1126.08 148.246C1133.21 149.015 1139.62 143.851 1140.39 136.713C1141.16 129.574 1136 123.164 1128.86 122.396C1121.72 121.627 1115.31 126.791 1114.54 133.929C1113.77 141.068 1118.94 147.478 1126.08 148.246Z" fill="#FF514A"/>
<circle cx="1127.47" cy="135.321" r="6" transform="rotate(6.14607 1127.47 135.321)" fill="#FF514A"/>
<path fill-rule="evenodd" clip-rule="evenodd" d="M1192.16 196.342L1180.93 198.782C1179.86 191.51 1175.62 180.491 1167.23 194.594L1158.69 188.262C1162.6 183.49 1166.86 174.515 1152.61 176.789L1150.49 167.017C1155.97 166.339 1164.04 162.95 1152.45 154.824L1158.19 145.903C1162.9 150.337 1171.74 155.546 1169.38 140.914L1179.64 138.686C1180.38 143.642 1183.71 150.799 1191.14 139.772L1199.84 144.532C1196.49 149.523 1193.17 158.568 1206.68 154.815L1208.8 164.587C1203.88 165.486 1196.69 169.572 1207.27 178.735L1202.89 186.849C1196.73 183.583 1185.95 180.909 1192.16 196.342ZM1177.35 154.022C1170.33 155.546 1165.88 162.469 1167.4 169.485C1168.92 176.501 1175.85 180.954 1182.86 179.43C1189.88 177.907 1194.33 170.984 1192.81 163.968C1191.28 156.951 1184.36 152.499 1177.35 154.022Z" fill="#9797DF"/>
<circle cx="1180.1" cy="166.727" r="6" transform="rotate(167.748 1180.1 166.727)" fill="#9797DF"/>
<rect x="1248" y="331" width="10" height="20" fill="#3F3224"/>
<rect x="1274" y="320" width="10" height="10" fill="#3F3224"/>
<path fill-rule="evenodd" clip-rule="evenodd" d="M1168.83 196.722L1179.86 199.981C1177.3 206.872 1175.72 218.571 1189.86 210.237L1194.3 219.893C1188.58 222.199 1180.54 228.024 1194.12 232.872L1191.28 242.462C1186.15 240.424 1177.45 239.521 1183.71 252.215L1174.39 257.282C1172.39 251.128 1167.14 242.312 1162.17 256.278L1152.11 253.303C1153.84 248.602 1154.36 240.727 1142.55 246.828L1137.2 238.469C1142.53 235.702 1149.79 229.366 1136.14 226.165L1138.98 216.575C1143.72 218.152 1152 218.026 1147.12 204.904L1154.86 199.892C1158.7 205.719 1166.86 213.243 1168.83 196.722ZM1161.49 240.956C1168.37 242.991 1175.61 239.059 1177.64 232.173C1179.68 225.288 1175.74 218.057 1168.86 216.022C1161.97 213.987 1154.74 217.919 1152.71 224.804C1150.67 231.69 1154.6 238.921 1161.49 240.956Z" fill="#F7C65A"/>
<circle cx="1165.17" cy="228.489" r="6" transform="rotate(16.4645 1165.17 228.489)" fill="#F7C65A"/>
<path d="M1271.39 311.696C1273.35 316 1276.09 328.052 1271.39 341.826" stroke="#467438" stroke-width="3"/>
<path d="M1257.7 327.348H1258.35C1266.63 327.348 1273.35 334.064 1273.35 342.348V343H1272.7C1264.41 343 1257.7 336.284 1257.7 328V327.348Z" fill="#467438"/>
<path d="M1289 327.348H1288.35C1280.06 327.348 1273.35 334.064 1273.35 342.348V343H1274C1282.28 343 1289 336.284 1289 328V327.348Z" fill="#467438"/>
<path d="M1253 305.15L1253.62 304.962C1261.56 302.57 1269.92 307.06 1272.32 314.991L1272.51 315.616L1271.88 315.804C1263.95 318.196 1255.58 313.706 1253.19 305.775L1253 305.15Z" fill="#F7F7F7"/>
<path d="M1282.97 296.111L1282.35 296.299C1274.41 298.691 1269.92 307.06 1272.32 314.992L1272.51 315.616L1273.13 315.428C1281.06 313.035 1285.55 304.666 1283.16 296.735L1282.97 296.111Z" fill="#F7F7F7"/>
<path d="M1265.88 294.478L1265.57 295.053C1261.65 302.353 1264.4 311.446 1271.7 315.362L1272.27 315.671L1272.58 315.096C1276.5 307.796 1273.75 298.703 1266.45 294.787L1265.88 294.478Z" fill="#F7F7F7"/>
<path d="M694.609 124.217C692.652 128.522 689.913 140.574 694.609 154.348" stroke="#467438" stroke-width="3"/>
<path d="M708.304 139.87H707.652C699.368 139.87 692.652 146.585 692.652 154.87V155.522H693.304C701.589 155.522 708.304 148.806 708.304 140.522V139.87Z" fill="#467438"/>
<path d="M677 139.87H677.652C685.936 139.87 692.652 146.585 692.652 154.87V155.522H692C683.716 155.522 677 148.806 677 140.522V139.87Z" fill="#467438"/>
<path d="M713 117.672L712.376 117.484C704.444 115.091 696.075 119.582 693.683 127.513L693.495 128.137L694.119 128.326C702.05 130.718 710.419 126.228 712.812 118.297L713 117.672Z" fill="#F7F7F7"/>
<path d="M683.029 108.632L683.654 108.821C691.585 111.213 696.075 119.582 693.683 127.513L693.495 128.138L692.87 127.949C684.939 125.557 680.449 117.188 682.841 109.257L683.029 108.632Z" fill="#F7F7F7"/>
<path d="M700.122 107L700.43 107.575C704.347 114.875 701.604 123.967 694.304 127.884L693.729 128.192L693.421 127.618C689.504 120.318 692.247 111.225 699.547 107.308L700.122 107Z" fill="#F7F7F7"/>
<rect width="222" height="30" transform="matrix(-1 0 0 1 1440 360)" fill="#265F3C"/>
<path d="M1440 423H1043C1036.37 423 1031 428.373 1031 435V435H1440V423Z" fill="#265F3C"/>
<rect width="409" height="21" transform="matrix(-1 0 0 1 1440 435)" fill="#10324B"/>
<path d="M0 390H434C440.627 390 446 395.373 446 402V402H0V390Z" fill="#377B56"/>
<rect width="222" height="43" transform="matrix(-1 0 0 1 1440 359)" fill="#265F3C"/>
<path d="M1440 343H1235C1225.61 343 1218 350.611 1218 360V360H1440V343Z" fill="#377B56"/>
<rect y="435" width="746" height="21" fill="#10324B"/>
<path d="M0 423H734C740.627 423 746 428.373 746 435V435H0V423Z" fill="#265F3C"/>
<rect x="1422" y="376" width="10" height="10" fill="#2B6B44"/>
<rect width="10" height="11" transform="matrix(-1 0 0 1 1320 371)" fill="#2B6B44"/>
<rect x="1340" y="370" width="10" height="20" fill="#2B6B44"/>
<path d="M1440 390H1118C1111.37 390 1106 395.373 1106 402V402H1440V390Z" fill="#265F3C"/>
<rect x="907" y="132" width="4.27586" height="36" rx="2" fill="#80E1D2"/>
<rect x="907" y="292" width="4.27586" height="36" rx="2" fill="#80E1D2"/>
<rect x="907" y="232" width="4.27586" height="36" rx="2" fill="#80E1D2"/>
<rect x="929" y="154" width="5" height="123" rx="2" fill="#80E1D2"/>
<rect x="1028" y="153" width="4" height="84" rx="2" fill="#80E1D2"/>
<rect x="981" y="196" width="4" height="84" rx="2" fill="#80E1D2"/>
<rect x="955.103" y="124" width="4.27586" height="57" rx="2" fill="#80E1D2"/>
<rect x="1048" y="226" width="5" height="50" rx="2" fill="#80E1D2"/>
<rect x="955.103" y="186" width="4.27586" height="21" rx="2" fill="#80E1D2"/>
<rect x="1000" y="327" width="4.00001" height="79" rx="2" transform="rotate(-180 1000 327)" fill="#80E1D2"/>
<rect x="1000" y="241" width="4" height="73" rx="2" transform="rotate(-180 1000 241)" fill="#80E1D2"/>
<rect x="801" y="448" width="4" height="84" rx="2" transform="rotate(-90 801 448)" fill="#89EFE1"/>
<rect x="846" y="429" width="4" height="73" rx="2" transform="rotate(90 846 429)" fill="#89EFE1"/>
<rect x="1355" y="325" width="10" height="10" fill="#3F3224"/>
<rect x="1412" y="313" width="10" height="10" fill="#3F3224"/>
<rect x="1050" y="140" width="4" height="29" rx="2" transform="rotate(-180 1050 140)" fill="#80E1D2"/>
<rect x="970" y="330" width="4" height="61" rx="2" transform="rotate(-180 970 330)" fill="#80E1D2"/>
</g>
</svg>
