<svg width="1440" height="1024" viewBox="0 0 1440 1024" fill="none" xmlns="http://www.w3.org/2000/svg">
<mask id="mask0_187_434" style="mask-type:luminance" maskUnits="userSpaceOnUse" x="0" y="0" width="1440" height="1024">
<path d="M1440 0H0V1024H1440V0Z" fill="white"/>
</mask>
<g mask="url(#mask0_187_434)">
<path d="M1440 0H0V1024H1440V0Z" fill="#0D202F"/>
</g>
<path d="M644 116.459C338.748 -62.3907 -158.321 56.5911 -264.18 127.5L-264.18 551.464C-22.9678 678.473 208.611 561.421 294.248 487.019C380.074 435.334 626.998 261.922 826.5 309.5C1026 357.078 1259.5 556.5 1546.88 386.8L1496.68 -48.2389C1424.46 -44.3106 1273.34 -33.0378 1246.54 -19.3725C1219.75 -5.70714 1163.26 76.876 1119.5 116.459C1066.52 171.034 935 286.959 644 116.459Z" fill="url(#paint0_linear_187_434)" fill-opacity="0.7" stroke="#04223B"/>
<defs>
<linearGradient id="paint0_linear_187_434" x1="1373" y1="57.6058" x2="-2.54426" y2="607.695" gradientUnits="userSpaceOnUse">
<stop stop-color="#0D202F"/>
<stop offset="0.436209" stop-color="#133155"/>
<stop offset="0.923887" stop-color="#0D202F"/>
</linearGradient>
</defs>
</svg>
