<svg width="1440" height="445" viewBox="0 0 1440 445" fill="none" xmlns="http://www.w3.org/2000/svg">
<mask id="mask0_239_1470" style="mask-type:alpha" maskUnits="userSpaceOnUse" x="0" y="0" width="1440" height="447">
<rect width="1440" height="447" fill="#D9D9D9"/>
</mask>
<g mask="url(#mask0_239_1470)">
<rect width="1570.52" height="398.591" transform="matrix(0.994848 -0.101382 0.137146 0.990551 -50.9999 230.222)" fill="#377B56"/>
<rect width="10" height="10" transform="matrix(-1 0 0 1 802 217)" fill="#3C865E"/>
<rect width="10" height="10" transform="matrix(-1 0 0 1 1059 230)" fill="#3C865E"/>
<rect width="10" height="10" transform="matrix(-1 0 0 1 1003 212)" fill="#3C865E"/>
<rect width="10" height="10" transform="matrix(-1 0 0 1 1203 212)" fill="#3C865E"/>
<rect width="10" height="10" transform="matrix(-1 0 0 1 876 212)" fill="#3C865E"/>
<rect width="10" height="11" transform="matrix(-1 0 0 1 824 171)" fill="#3C865E"/>
<rect width="10" height="20" transform="matrix(-1 0 0 1 898 215)" fill="#3C865E"/>
<rect width="10" height="19" transform="matrix(-1 0 0 1 1121 212)" fill="#3C865E"/>
<rect width="10" height="10" transform="matrix(-1 0 0 1 995 162)" fill="#3C865E"/>
<rect width="10" height="10" transform="matrix(-1 0 0 1 939 144)" fill="#3C865E"/>
<rect width="10" height="20" transform="matrix(-1 0 0 1 1057 144)" fill="#3C865E"/>
<rect width="10" height="11" transform="matrix(1 0 0 -1 1404 254)" fill="#3C865E"/>
<rect width="10" height="10" transform="matrix(1 0 0 -1 1147 241)" fill="#3C865E"/>
<rect width="10" height="10" transform="matrix(1 0 0 -1 1203 259)" fill="#3C865E"/>
<rect width="10" height="10" transform="matrix(1 0 0 -1 1003 259)" fill="#3C865E"/>
<rect width="10" height="10" transform="matrix(1 0 0 -1 1330 259)" fill="#3C865E"/>
<rect width="10" height="19" transform="matrix(1 0 0 -1 1308 255)" fill="#3C865E"/>
<rect width="10" height="20" transform="matrix(1 0 0 -1 1085 259)" fill="#3C865E"/>
<rect width="10" height="11" transform="matrix(1 0 0 -1 1211 309)" fill="#3C865E"/>
<rect width="10" height="11" transform="matrix(1 0 0 -1 1267 327)" fill="#3C865E"/>
<rect width="10" height="20" transform="matrix(1 0 0 -1 1149 327)" fill="#3C865E"/>
<rect x="1257" y="171" width="10" height="10" fill="#3C865E"/>
<rect x="1313" y="156" width="10" height="9" fill="#3C865E"/>
<rect x="1113" y="156" width="10" height="9" fill="#3C865E"/>
<rect x="1418" y="159" width="10" height="18" fill="#3C865E"/>
<rect x="1195" y="156" width="10" height="17" fill="#3C865E"/>
<rect x="1321" y="111" width="10" height="9" fill="#3C865E"/>
<rect x="1377" y="95" width="10" height="9" fill="#3C865E"/>
<circle cx="68.684" cy="147.176" r="29.6427" transform="rotate(17.8014 68.684 147.176)" fill="#3F8E5B"/>
<circle cx="69.6418" cy="164.116" r="30.8609" transform="rotate(17.8014 69.6418 164.116)" fill="#275C40"/>
<circle cx="36.9315" cy="155.746" r="29.6427" transform="rotate(17.8014 36.9315 155.746)" fill="#3F8E5B"/>
<circle cx="-0.219548" cy="163.861" r="21.1153" transform="rotate(17.8014 -0.219548 163.861)" fill="#3F8E5B"/>
<circle cx="38.6483" cy="171.65" r="28.0184" transform="rotate(17.8014 38.6483 171.65)" fill="#275C40"/>
<circle cx="18.757" cy="184.455" r="21.1153" transform="rotate(17.8014 18.757 184.455)" fill="#3F8E5B"/>
<circle cx="104.438" cy="175.289" r="27.6124" transform="rotate(17.8014 104.438 175.289)" fill="#3F8E5B"/>
<circle cx="109.702" cy="186.788" r="27.2063" transform="rotate(17.8014 109.702 186.788)" fill="#275C40"/>
<rect x="1259" y="95" width="10" height="18" fill="#3C865E"/>
<path d="M-83.3271 179.956L1483.4 304.249L1440.73 700.16L-126 575.868L-83.3271 179.956Z" fill="#55BD7B"/>
<path d="M316.831 429.404H319.139C326.835 429.404 333.074 435.643 333.074 443.339V443.339H330.766C323.07 443.339 316.831 437.1 316.831 429.404V429.404Z" fill="#467438"/>
<path d="M349.316 429.404H347.008C339.312 429.404 333.074 435.643 333.074 443.339V443.339H335.381C343.077 443.339 349.316 437.1 349.316 429.404V429.404Z" fill="#467438"/>
<path d="M1285.29 46.696L1273.77 46.696C1268.25 46.696 1263.77 51.1732 1263.77 56.696L1263.77 61.623L1285.29 61.623L1285.29 46.696Z" fill="#37889B"/>
<path d="M1277.82 61.623L1263.77 61.623L1263.77 84.7209C1263.77 87.4824 1266.01 89.7209 1268.77 89.7209L1272.82 89.7209C1275.58 89.7209 1277.82 87.4824 1277.82 84.7209L1277.82 61.623Z" fill="#37889B"/>
<path d="M1266.6 93.3813C1266.6 87.8585 1271.08 83.3813 1276.6 83.3813H1349.58V85.6742C1349.58 91.197 1345.1 95.6742 1339.58 95.6742H1266.6V93.3813Z" fill="#216093"/>
<path d="M1266.6 95.6743H1281.53V123.162C1281.53 125.924 1279.29 128.162 1276.53 128.162H1271.6C1268.84 128.162 1266.6 125.924 1266.6 123.162V95.6743Z" fill="#216093"/>
<path d="M1310.07 95.6743H1325V123.162C1325 125.924 1322.76 128.162 1320 128.162H1315.07C1312.31 128.162 1310.07 125.924 1310.07 123.162V95.6743Z" fill="#216093"/>
<path d="M1282.85 49.0393C1282.85 43.5165 1287.33 39.0393 1292.85 39.0393H1339.58C1345.1 39.0393 1349.58 43.5165 1349.58 49.0393V83.3813H1282.85V49.0393Z" fill="#37889B"/>
<path d="M1349.58 46.5027H1361.09C1366.62 46.5027 1371.09 50.9798 1371.09 56.5027V61.4297H1349.58V46.5027Z" fill="#37889B"/>
<rect x="1292.07" y="63.186" width="48.2932" height="14.488" rx="5" fill="#216093"/>
<path d="M1292.07 51.9419C1292.07 49.1805 1294.31 46.9419 1297.07 46.9419H1309.46C1312.22 46.9419 1314.46 49.1805 1314.46 51.9419V54.2347C1314.46 56.9961 1312.22 59.2347 1309.46 59.2347H1297.07C1294.31 59.2347 1292.07 56.9961 1292.07 54.2347V51.9419Z" fill="#216093"/>
<path d="M1357.05 61.4299H1371.09V84.5278C1371.09 87.2892 1368.86 89.5278 1366.09 89.5278H1362.05C1359.28 89.5278 1357.05 87.2892 1357.05 84.5278V61.4299Z" fill="#37889B"/>
<path d="M1335.97 39.0393L1299.09 39.0393L1299.09 10.4047C1299.09 4.88186 1303.57 0.404717 1309.09 0.404718L1325.97 0.404719C1331.49 0.40472 1335.97 4.88187 1335.97 10.4047L1335.97 39.0393Z" fill="#216093"/>
<rect x="1316.65" y="46.9419" width="3.95127" height="6.14641" rx="1.97563" fill="#B7CF6A"/>
<rect x="1330.26" y="46.9419" width="3.95127" height="12.2928" rx="1.97563" fill="#B7CF6A"/>
<rect x="1336.41" y="46.9419" width="3.95127" height="12.2928" rx="1.97563" fill="#E86661"/>
<rect x="1322.8" y="52.6492" width="3.95127" height="6.14641" rx="1.97563" fill="#F7C65A"/>
<rect x="1305.24" y="12.2585" width="9.21962" height="9.21962" rx="3" fill="#F7C65A"/>
<rect x="1320.17" y="12.2585" width="9.21962" height="9.21962" rx="3" fill="#F7C65A"/>
<path d="M898.61 62.5613C867.652 66.6641 858.048 95.6631 857.116 109.65C855.251 132.495 876.231 155.806 896.278 153.475C912.317 151.61 918.191 157.049 919.123 160.002C923.599 172.683 939.016 177.407 946.164 178.184H991.854H1014.7C1027.38 178.184 1031.79 173.833 1032.42 171.657V30.392C1030.55 24.4244 1023.25 22.3108 1019.83 22H937.772C927.515 23.3987 911.819 30.392 908.4 42.98C904.869 55.9828 902.339 61.6289 898.61 62.5613Z" fill="#275C40"/>
<mask id="mask1_239_1470" style="mask-type:alpha" maskUnits="userSpaceOnUse" x="857" y="22" width="176" height="157">
<path d="M898.611 62.5613C867.653 66.6641 858.048 95.6631 857.116 109.65C855.251 132.495 876.231 155.806 896.279 153.475C912.318 151.61 918.192 157.049 919.125 160.002C923.601 172.683 939.018 177.407 946.167 178.184H991.857H1014.7C1027.38 178.184 1031.8 173.833 1032.42 171.657V30.392C1030.55 24.4244 1023.25 22.3108 1019.83 22H937.774C927.517 23.3987 912.226 29.7152 908.165 43.5214C904.363 56.4476 902.341 61.6289 898.611 62.5613Z" fill="#275C40"/>
</mask>
<g mask="url(#mask1_239_1470)">
<path d="M901.047 54.44C870.089 58.5427 860.485 87.5417 859.552 101.528C857.687 124.373 878.668 147.684 898.716 145.353C914.754 143.488 920.629 148.928 921.561 151.88C926.037 164.562 941.454 169.286 948.603 170.063H994.294H1017.14C1029.82 170.063 1034.23 165.712 1034.86 163.536V22.2707C1032.99 16.303 1025.69 14.1895 1022.27 13.8787H940.211C929.954 15.2773 914.257 22.2707 910.838 34.8587C907.307 47.8615 904.777 53.5075 901.047 54.44Z" fill="#3F8E5B"/>
</g>
<path d="M1057.39 61.2294C1085.34 65.1975 1094.01 93.2443 1094.85 106.772C1096.53 128.866 1077.59 151.412 1059.49 149.158C1045.01 147.354 1039.71 152.615 1038.87 155.47C1034.83 167.735 1020.91 172.304 1014.46 173.056H973.207H952.583C941.134 173.056 937.15 168.847 936.589 166.743V30.1164C938.272 24.3447 944.866 22.3006 947.953 22H1022.03C1031.29 23.3527 1045.46 30.1164 1048.55 42.2911C1051.74 54.8669 1054.02 60.3276 1057.39 61.2294Z" fill="#3F8E5B"/>
<rect x="976.469" y="73.7505" width="14.9191" height="212.597" rx="7.45955" fill="#10324B"/>
<rect x="936.374" y="116.561" width="14.9191" height="73.687" rx="7.45955" transform="rotate(-38.2811 936.374 116.561)" fill="#10324B"/>
<rect x="1011.79" y="124.103" width="14.9191" height="53.9049" rx="7.45955" transform="rotate(45 1011.79 124.103)" fill="#10324B"/>
<path d="M924.555 118.476C917.167 122.224 908.14 119.273 904.392 111.885L902.834 108.813L905.905 107.255C913.293 103.508 922.321 106.459 926.068 113.847L927.626 116.918L924.555 118.476Z" fill="#55BD7B"/>
<path d="M950.961 90.6032C942.84 88.9631 937.587 81.0507 939.227 72.9305L939.909 69.5547L943.285 70.2365C951.405 71.8766 956.658 79.789 955.018 87.9093L954.337 91.285L950.961 90.6032Z" fill="#55BD7B"/>
<path d="M963.87 60.5194C956.86 56.1054 954.755 46.8441 959.169 39.8337L961.004 36.9193L963.918 38.7543C970.929 43.1683 973.034 52.4296 968.62 59.44L966.785 62.3543L963.87 60.5194Z" fill="#55BD7B"/>
<path d="M1005.63 106.539C1005.17 98.2674 1011.5 91.1904 1019.78 90.7319L1023.21 90.5413L1023.41 93.9799C1023.86 102.252 1017.53 109.329 1009.26 109.787L1005.82 109.978L1005.63 106.539Z" fill="#55BD7B"/>
<path d="M1398.99 52.6963C1401.02 57.163 1403.87 69.6698 1398.99 83.9632" stroke="#467438" stroke-width="3"/>
<path d="M1384.78 68.9387H1386.02C1394.31 68.9387 1401.02 75.6544 1401.02 83.9387V85.1813H1399.78C1391.5 85.1813 1384.78 78.4656 1384.78 70.1813V68.9387Z" fill="#467438"/>
<path d="M1417.27 68.9387H1416.02C1407.74 68.9387 1401.02 75.6544 1401.02 83.9387V85.1813H1402.27C1410.55 85.1813 1417.27 78.4656 1417.27 70.1813V68.9387Z" fill="#467438"/>
<path d="M1379.91 45.9041L1381.1 45.5452C1389.03 43.1529 1397.4 47.6432 1399.79 55.5745L1400.15 56.7642L1398.96 57.123C1391.03 59.5153 1382.66 55.025 1380.27 47.0937L1379.91 45.9041Z" fill="#F7F7F7"/>
<path d="M1411.01 36.5232L1409.82 36.882C1401.89 39.2743 1397.4 47.6433 1399.79 55.5746L1400.15 56.7642L1401.34 56.4054C1409.27 54.0131 1413.76 45.6442 1411.37 37.7128L1411.01 36.5232Z" fill="#F7F7F7"/>
<path d="M1393.27 34.8293L1392.68 35.9243C1388.77 43.2242 1391.51 52.317 1398.81 56.2337L1399.9 56.8212L1400.49 55.7263C1404.41 48.4264 1401.67 39.3335 1394.37 35.4168L1393.27 34.8293Z" fill="#F7F7F7"/>
<rect x="54.0001" y="409" width="10" height="10" fill="#61D38D"/>
<rect x="449" y="426" width="10" height="10" fill="#61D38D"/>
<rect x="264" y="409" width="10" height="10" fill="#61D38D"/>
<rect x="289" y="417" width="10" height="10" fill="#61D38D"/>
<rect x="4.00006" y="409" width="10" height="10" fill="#61D38D"/>
<rect x="64.0001" y="327" width="10" height="19" fill="#61D38D"/>
<rect x="144" y="422" width="10" height="10" fill="#61D38D"/>
<rect x="28.0001" y="420" width="10" height="20" fill="#61D38D"/>
<rect x="778" y="285" width="10" height="10" fill="#61D38D"/>
<rect x="821" y="309" width="10" height="10" fill="#61D38D"/>
<rect x="1216" y="326" width="10" height="10" fill="#61D38D"/>
<rect x="1031" y="309" width="10" height="10" fill="#61D38D"/>
<rect x="1053" y="340" width="10" height="10" fill="#61D38D"/>
<rect x="748" y="394" width="10" height="19" fill="#61D38D"/>
<rect x="911" y="322" width="10" height="10" fill="#61D38D"/>
<rect x="795" y="320" width="10" height="20" fill="#61D38D"/>
<rect x="1133" y="350" width="10" height="20" fill="#61D38D"/>
<rect width="10" height="11" transform="matrix(-1 0 0 1 1311 376)" fill="#61D38D"/>
<rect width="10" height="10" transform="matrix(-1 0 0 1 916 394)" fill="#61D38D"/>
<rect width="10" height="11" transform="matrix(-1 0 0 1 1079 407)" fill="#61D38D"/>
<rect width="10" height="11" transform="matrix(-1 0 0 1 1221 389)" fill="#61D38D"/>
<rect width="10" height="19" transform="matrix(-1 0 0 1 1140 442)" fill="#3C865E"/>
<rect width="10" height="19" transform="matrix(-1 0 0 1 999 418)" fill="#61D38D"/>
<circle cx="927.383" cy="365.203" r="29.6427" transform="rotate(3.95584 927.383 365.203)" fill="#3F8E5B"/>
<circle cx="932.367" cy="381.422" r="30.8609" transform="rotate(3.95584 932.367 381.422)" fill="#275C40"/>
<circle cx="898.604" cy="381.122" r="29.6427" transform="rotate(3.95584 898.604 381.122)" fill="#3F8E5B"/>
<circle cx="864.474" cy="397.893" r="21.1153" transform="rotate(3.95584 864.474 397.893)" fill="#3F8E5B"/>
<circle cx="904.077" cy="396.154" r="28.0184" transform="rotate(3.95584 904.077 396.154)" fill="#275C40"/>
<circle cx="887.828" cy="413.347" r="21.1153" transform="rotate(3.95584 887.828 413.347)" fill="#3F8E5B"/>
<circle cx="968.826" cy="383.943" r="27.6124" transform="rotate(3.95584 968.826 383.943)" fill="#3F8E5B"/>
<circle cx="976.688" cy="393.848" r="27.2063" transform="rotate(3.95584 976.688 393.848)" fill="#275C40"/>
<rect x="598" y="406" width="10" height="11" fill="#61D38D"/>
<path d="M1035.12 271.837H1102.52V274.019C1102.52 279.542 1098.04 284.019 1092.52 284.019H1045.12C1039.59 284.019 1035.12 279.542 1035.12 274.019V271.837Z" fill="#16425E"/>
<path d="M1049.73 284.019H1064.66V311.507C1064.66 314.269 1062.42 316.507 1059.66 316.507H1054.73C1051.97 316.507 1049.73 314.269 1049.73 311.507V284.019Z" fill="#16425E"/>
<path d="M1074.91 284.019H1089.84V311.507C1089.84 314.269 1087.6 316.507 1084.84 316.507H1079.91C1077.15 316.507 1074.91 314.269 1074.91 311.507V284.019Z" fill="#16425E"/>
<path d="M1035.51 237.635C1035.51 232.112 1039.99 227.635 1045.51 227.635H1092.24C1097.77 227.635 1102.24 232.112 1102.24 237.635V271.976H1035.51V237.635Z" fill="#295D77"/>
<path d="M1102.24 235.098H1113.76C1119.28 235.098 1123.76 239.575 1123.76 245.098V250.025H1102.24V235.098Z" fill="#295D77"/>
<rect x="1044.73" y="251.781" width="48.2932" height="14.488" rx="5" fill="#16425E"/>
<path d="M1044.73 240.537C1044.73 237.776 1046.97 235.537 1049.73 235.537H1062.12C1064.88 235.537 1067.12 237.776 1067.12 240.537V242.83C1067.12 245.591 1064.88 247.83 1062.12 247.83H1049.73C1046.97 247.83 1044.73 245.591 1044.73 242.83V240.537Z" fill="#16425E"/>
<path d="M1109.71 250.025H1123.76V273.123C1123.76 275.884 1121.52 278.123 1118.76 278.123H1114.71C1111.95 278.123 1109.71 275.884 1109.71 273.123V250.025Z" fill="#295D77"/>
<path d="M1035.51 235.291H1024C1018.48 235.291 1014 239.768 1014 245.291V250.218H1035.51V235.291Z" fill="#295D77"/>
<path d="M1028.05 250.218H1014V273.316C1014 276.078 1016.24 278.316 1019 278.316H1023.05C1025.81 278.316 1028.05 276.078 1028.05 273.316V250.218Z" fill="#295D77"/>
<path d="M1088.63 227.635L1051.76 227.635L1051.76 199C1051.76 193.477 1056.23 189 1061.76 189L1078.63 189C1084.16 189 1088.63 193.477 1088.63 199L1088.63 227.635Z" fill="#16425E"/>
<rect x="1069.32" y="235.537" width="3.95127" height="6.14641" rx="1.97563" fill="#B7CF6A"/>
<rect x="1082.93" y="235.537" width="3.95127" height="12.2928" rx="1.97563" fill="#B7CF6A"/>
<rect x="1089.07" y="235.537" width="3.95127" height="12.2928" rx="1.97563" fill="#E86661"/>
<rect x="1075.46" y="241.244" width="3.95127" height="6.14641" rx="1.97563" fill="#F7C65A"/>
<rect x="1057.9" y="200.854" width="9.21962" height="9.21962" rx="3" fill="#F7C65A"/>
<rect x="1072.83" y="200.854" width="9.21962" height="9.21962" rx="3" fill="#F7C65A"/>
<rect x="18.0001" y="278" width="10" height="19" fill="#61D38D"/>
<path d="M-92.9999 450.422L1478.15 378.136L1502.97 775.166L-68.1825 847.452L-92.9999 450.422Z" fill="#306F4C"/>
<rect width="10" height="10" transform="matrix(-1 0 0 1 22.0001 203)" fill="#61D38D"/>
<path d="M-92.9999 465.006L1478.15 392.721L1502.97 789.751L-68.1825 862.036L-92.9999 465.006Z" fill="#377B56"/>
<path d="M988 310H990.308C998.004 310 1004.24 316.239 1004.24 323.935V323.935H1001.93C994.239 323.935 988 317.696 988 310V310Z" fill="#467438"/>
<path d="M1020.49 310H1018.18C1010.48 310 1004.24 316.239 1004.24 323.935V323.935H1006.55C1014.25 323.935 1020.49 317.696 1020.49 310V310Z" fill="#467438"/>
<rect width="10" height="10" transform="matrix(-1 0 0 1 85.0001 281)" fill="#61D38D"/>
<rect width="10" height="11" transform="matrix(1 0 0 -1 1255 447)" fill="#3C865E"/>
<rect width="10" height="10" transform="matrix(1 0 0 -1 1331 452)" fill="#3C865E"/>
<path d="M1308.61 234.561C1277.65 238.664 1268.05 267.663 1267.12 281.65C1265.25 304.495 1286.23 327.806 1306.28 325.475C1322.32 323.61 1328.19 329.049 1329.12 332.002C1333.6 344.683 1349.02 349.407 1356.16 350.184H1401.85H1424.7C1437.38 350.184 1441.79 345.833 1442.42 343.657V202.392C1440.55 196.424 1433.25 194.311 1429.83 194H1347.77C1337.52 195.399 1321.82 202.392 1318.4 214.98C1314.87 227.983 1312.34 233.629 1308.61 234.561Z" fill="#275C40"/>
<mask id="mask2_239_1470" style="mask-type:alpha" maskUnits="userSpaceOnUse" x="1267" y="194" width="176" height="157">
<path d="M1308.61 234.561C1277.65 238.664 1268.05 267.663 1267.12 281.65C1265.25 304.495 1286.23 327.806 1306.28 325.475C1322.32 323.61 1328.19 329.049 1329.12 332.002C1333.6 344.683 1349.02 349.407 1356.16 350.184H1401.85H1424.7C1437.38 350.184 1441.79 345.833 1442.42 343.657V202.392C1440.55 196.424 1433.25 194.311 1429.83 194H1347.77C1337.52 195.399 1322.22 201.715 1318.16 215.521C1314.36 228.448 1312.34 233.629 1308.61 234.561Z" fill="#275C40"/>
</mask>
<g mask="url(#mask2_239_1470)">
<path d="M1311.05 226.44C1280.09 230.543 1270.48 259.542 1269.55 273.529C1267.69 296.374 1288.67 319.685 1308.71 317.354C1324.75 315.489 1330.63 320.928 1331.56 323.881C1336.04 336.562 1351.45 341.286 1358.6 342.063H1404.29H1427.14C1439.82 342.063 1444.23 337.712 1444.85 335.536V194.271C1442.99 188.303 1435.68 186.19 1432.26 185.879H1350.21C1339.95 187.278 1324.26 194.271 1320.84 206.859C1317.31 219.862 1314.78 225.508 1311.05 226.44Z" fill="#3F8E5B"/>
</g>
<rect x="1386.47" y="245.75" width="14.9191" height="212.597" rx="7.45955" fill="#10324B"/>
<rect x="1346.37" y="288.561" width="14.9191" height="73.687" rx="7.45955" transform="rotate(-38.2811 1346.37 288.561)" fill="#10324B"/>
<rect x="1421.79" y="296.103" width="14.9191" height="53.9049" rx="7.45955" transform="rotate(45 1421.79 296.103)" fill="#10324B"/>
<path d="M1334.56 290.476C1327.17 294.224 1318.14 291.273 1314.39 283.885L1312.83 280.813L1315.91 279.255C1323.29 275.508 1332.32 278.459 1336.07 285.847L1337.63 288.918L1334.56 290.476Z" fill="#55BD7B"/>
<path d="M1360.96 262.603C1352.84 260.963 1347.59 253.051 1349.23 244.93L1349.91 241.555L1353.28 242.237C1361.41 243.877 1366.66 251.789 1365.02 259.909L1364.34 263.285L1360.96 262.603Z" fill="#55BD7B"/>
<path d="M1373.87 232.519C1366.86 228.105 1364.76 218.844 1369.17 211.834L1371 208.919L1373.92 210.754C1380.93 215.168 1383.03 224.43 1378.62 231.44L1376.78 234.354L1373.87 232.519Z" fill="#55BD7B"/>
<path d="M1415.63 278.539C1415.17 270.267 1421.5 263.19 1429.78 262.732L1433.21 262.541L1433.41 265.98C1433.86 274.252 1427.53 281.329 1419.26 281.787L1415.82 281.978L1415.63 278.539Z" fill="#55BD7B"/>
<rect width="10" height="20" transform="matrix(-1 0 0 1 48.0001 214)" fill="#61D38D"/>
<rect width="10" height="20" transform="matrix(-1 0 0 1 5.00006 291)" fill="#61D38D"/>
<rect x="583" y="436" width="10" height="11" fill="#3C865E"/>
<rect x="811" y="434" width="10" height="20" fill="#3C865E"/>
<path d="M929 285H931.308C939.004 285 945.243 291.239 945.243 298.935V298.935H942.935C935.239 298.935 929 292.696 929 285V285Z" fill="#3F8E5B"/>
<path d="M961.485 285H959.177C951.481 285 945.243 291.239 945.243 298.935V298.935H947.55C955.246 298.935 961.485 292.696 961.485 285V285Z" fill="#3F8E5B"/>
<path d="M1138 163H1140.31C1148 163 1154.24 169.239 1154.24 176.935V176.935H1151.93C1144.24 176.935 1138 170.696 1138 163V163Z" fill="#55BD7B"/>
<path d="M1170.49 163H1168.18C1160.48 163 1154.24 169.239 1154.24 176.935V176.935H1156.55C1164.25 176.935 1170.49 170.696 1170.49 163V163Z" fill="#55BD7B"/>
<rect x="954" y="435" width="10" height="10" fill="#3C865E"/>
</g>
</svg>
