<svg width="53" height="73" viewBox="0 0 53 73" fill="none" xmlns="http://www.w3.org/2000/svg">
<path d="M27.1343 0C27.3458 10.7958 32.6149 32.3873 52 32.3873C43.8031 32.7686 27.4998 41.2447 27.1404 71.9615C27.1417 72.3157 27.1396 72.6621 27.1343 73C27.1343 72.651 27.1364 72.3049 27.1404 71.9615C27.0901 58.3325 22.0336 33.1474 1.9177 32.4042C1.60241 32.4062 1.29618 32.4004 1 32.3873C1.30933 32.3873 1.61522 32.393 1.9177 32.4042C10.876 32.345 27.1343 25.9229 27.1343 0Z" fill="#F7D45A"/>
<path d="M27.1343 0C27.3458 10.7958 32.6149 32.3873 52 32.3873C43.7114 32.7729 27.1343 41.4352 27.1343 73C27.3458 59.4624 22.4149 32.3873 1 32.3873C9.71144 32.7729 27.1343 26.8352 27.1343 0Z" stroke="#F7D45A"/>
</svg>
